<?xml version="1.0" encoding="utf-8"?>
<!-- Generator: Adobe Illustrator 19.0.0, SVG Export Plug-In . SVG Version: 6.00 Build 0)  -->
<svg version="1.1" id="Warstwa_1" xmlns="http://www.w3.org/2000/svg" xmlns:xlink="http://www.w3.org/1999/xlink" x="0px" y="0px"
	 viewBox="0 0 400 900" style="enable-background:new 0 0 400 900;" xml:space="preserve">
<style type="text/css">
	.st0{fill:#533D32;}
	.st1{fill:#ECECEC;}
	.st2{fill:#1A2E35;}
	.st3{fill:#B89778;}
	.st4{fill:#3B302A;}
	.st5{fill:#FFBF9D;}
	.st6{fill:#FF9A6C;}
	.st7{fill:#6A4E42;}
	.st8{fill:#00456B;}
	.st9{opacity:0.3;}
	.st10{fill:#375A64;}
	.st11{opacity:0.2;fill:#6A4E42;}
</style>
<g id="XMLID_1_">
	<g id="XMLID_23_">
		<g id="XMLID_1043_">
			<g id="XMLID_1623_">
				<g id="XMLID_1636_">
					<g id="XMLID_1668_">
						<g id="XMLID_52_">
							<g id="XMLID_55_">
								<g id="XMLID_56_">
									<path id="XMLID_57_" class="st0" d="M232,797.9l3.7,46.7c0,0,46.1,14.8,46.4,23.5l-90.2,1.2l-2.7-71.5L232,797.9z"/>
								</g>
							</g>
						</g>
					</g>
					<g id="XMLID_1663_">
						<g id="XMLID_1664_">
							<g id="XMLID_1665_">
								<g id="XMLID_1666_">
									<path id="XMLID_1667_" class="st1" d="M207.9,839.9c-1.8,0.4-3,2.4-2.7,4.1c0.4,1.8,2.3,3.1,4.1,2.7
										c1.8-0.4,3.4-2.7,2.8-4.4c-0.5-1.7-2.9-3.1-4.5-2.3"/>
								</g>
							</g>
						</g>
					</g>
					<g id="XMLID_1658_">
						<g id="XMLID_1659_">
							<g id="XMLID_1660_">
								<path id="XMLID_1661_" class="st1" d="M191.9,869.3l0.2-7.2l85.5,0.5c0,0,4.9,2.9,4.8,5.7L191.9,869.3z"/>
							</g>
						</g>
					</g>
					<g id="XMLID_1652_">
						<g id="XMLID_1653_">
							<g id="XMLID_1654_">
								<g id="XMLID_1656_">
									<path id="XMLID_1657_" class="st2" d="M237.2,844.2c0,0.4-2.2,0.6-4.5,1.9c-2.2,1.3-3.4,3.2-3.8,3c-0.4-0.1,0.3-2.7,3-4.3
										C234.6,843.2,237.3,843.8,237.2,844.2z"/>
								</g>
							</g>
						</g>
					</g>
					<g id="XMLID_1647_">
						<g id="XMLID_1648_">
							<g id="XMLID_1649_">
								<g id="XMLID_1650_">
									<path id="XMLID_1651_" class="st2" d="M246.5,848.4c0.1,0.4-1.8,1.1-3.4,2.9c-1.6,1.8-2,3.8-2.5,3.7
										c-0.4,0.1-0.6-2.5,1.3-4.8C243.9,848.1,246.5,848,246.5,848.4z"/>
								</g>
							</g>
						</g>
					</g>
					<g id="XMLID_1642_">
						<g id="XMLID_1643_">
							<g id="XMLID_1644_">
								<g id="XMLID_1645_">
									<path id="XMLID_1646_" class="st2" d="M251.6,859.9c-0.4,0.1-1-2.1,0.3-4.5c1.2-2.4,3.3-3.3,3.5-2.9
										c0.2,0.4-1.1,1.6-2.1,3.6C252.2,858,252,859.9,251.6,859.9z"/>
								</g>
							</g>
						</g>
					</g>
					<g id="XMLID_1637_">
						<g id="XMLID_1638_">
							<g id="XMLID_1639_">
								<g id="XMLID_1640_">
									<path id="XMLID_1641_" class="st2" d="M236.7,833.5c-0.2,0.4-2.2-0.3-4.7-0.2c-2.5,0-4.5,0.8-4.7,0.4
										c-0.2-0.3,1.7-1.9,4.6-2C234.9,831.7,236.9,833.2,236.7,833.5z"/>
								</g>
							</g>
						</g>
					</g>
				</g>
				<g id="XMLID_1629_">
					<g id="XMLID_1630_">
						<g id="XMLID_1632_">
							<g id="XMLID_1634_">
								<path id="XMLID_1635_" class="st2" d="M237.1,824.1c0,0.2-1.8,0.4-4.5-0.2c-1.4-0.3-3-0.8-4.7-1.6c-0.8-0.4-1.7-0.9-2.6-1.5
									c-0.4-0.3-0.9-0.6-1.3-1.1c-0.5-0.5-0.7-1.7-0.1-2.4c0.5-0.7,1.3-1,2-1c0.7,0,1.2,0.1,1.7,0.3c1,0.3,1.9,0.6,2.8,1.1
									c1.7,0.8,3.1,1.9,4.1,2.9c2,2,2.7,3.7,2.5,3.8c-0.2,0.1-1.2-1.3-3.3-2.9c-1-0.8-2.4-1.7-4-2.4c-0.8-0.3-1.7-0.6-2.6-0.9
									c-0.9-0.3-1.8-0.3-2,0.1c-0.1,0.2-0.1,0.2,0.1,0.5c0.2,0.3,0.6,0.5,1,0.8c0.8,0.5,1.6,1,2.3,1.4c1.6,0.8,3,1.4,4.3,1.8
									C235.5,823.7,237.2,823.9,237.1,824.1z"/>
							</g>
						</g>
					</g>
				</g>
				<g id="XMLID_1624_">
					<g id="XMLID_1625_">
						<g id="XMLID_1626_">
							<g id="XMLID_1627_">
								<path id="XMLID_1628_" class="st2" d="M236.5,824.8c-0.2,0.1-1-1.5-1.1-4.4c0-1.4,0.2-3.1,0.8-4.9c0.3-0.9,0.7-1.8,1.2-2.7
									c0.6-0.9,1.2-2.1,3-2.2c0.9,0,1.6,0.7,1.9,1.3c0.3,0.6,0.3,1.1,0.4,1.7c0.1,1.1,0.1,2.1-0.1,3c-0.3,1.9-1.2,3.5-2.1,4.6
									c-1.8,2.3-3.7,2.8-3.7,2.6c-0.1-0.2,1.4-1,2.8-3.2c0.7-1.1,1.3-2.5,1.6-4.2c0.1-0.8,0.1-1.7,0-2.6c-0.1-1-0.4-1.7-0.8-1.7
									c-0.4,0-1.2,0.7-1.6,1.4c-0.5,0.8-0.9,1.6-1.2,2.4c-0.6,1.6-0.9,3.2-1,4.5C236.4,823,236.8,824.7,236.5,824.8z"/>
							</g>
						</g>
					</g>
				</g>
			</g>
			<g id="XMLID_1596_">
				<g id="XMLID_1621_">
					<g id="XMLID_35_">
						<path id="XMLID_36_" class="st0" d="M36.9,790.1l-10.4,54.5L5.8,885.4c-1.5,2.9-0.2,6.5,2.8,7.8l0,0c1.7,0.7,3.6,0.6,5.2-0.4
							c10-6.2,46.6-29,47.2-33.1c0.6-4.7,13-57.4,13-57.4L36.9,790.1z"/>
					</g>
				</g>
				<g id="XMLID_1619_">
					<path id="XMLID_1620_" class="st1" d="M8.6,893.3l53.1-37.1l-0.5,2.3c-0.4,2-1.5,3.8-3.2,5c-4.3,3.3-16.4,12.2-44.1,29.5
						C12.4,893.9,10.3,894.1,8.6,893.3L8.6,893.3z"/>
				</g>
				<g id="XMLID_1616_">
					<g id="XMLID_1617_">
						<path id="XMLID_1618_" class="st1" d="M54.4,840.2c-1.6,0.6-2.4,2.6-1.9,4.2c0.6,1.6,2.6,2.5,4.1,1.9c1.6-0.6,2.7-2.9,2-4.5
							c-0.8-1.5-3.1-2.5-4.5-1.5"/>
					</g>
				</g>
				<g id="XMLID_1613_">
					<g id="XMLID_1614_">
						<path id="XMLID_1615_" class="st2" d="M26.1,872.2c-0.3,0.1-1-3-3.9-5.2c-2.8-2.3-6-2.2-6-2.5c0-0.1,0.8-0.4,2.1-0.3
							c1.3,0.1,3.1,0.7,4.7,1.9c1.6,1.3,2.6,2.9,2.9,4.1C26.4,871.4,26.3,872.2,26.1,872.2z"/>
					</g>
				</g>
				<g id="XMLID_1610_">
					<g id="XMLID_1611_">
						<path id="XMLID_1612_" class="st2" d="M20.7,878.6c-0.3,0.2-1.7-2-4.3-3.4c-2.6-1.5-5.1-1.5-5.2-1.8c-0.1-0.3,2.8-0.9,5.7,0.8
							C20,875.8,21,878.6,20.7,878.6z"/>
					</g>
				</g>
				<g id="XMLID_1607_">
					<g id="XMLID_1608_">
						<path id="XMLID_1609_" class="st2" d="M35.3,864.4c-0.3,0.2-2.4-3.1-6.3-5.6c-3.9-2.6-7.7-3.2-7.6-3.6c0-0.3,4.2-0.2,8.3,2.6
							C33.9,860.5,35.6,864.3,35.3,864.4z"/>
					</g>
				</g>
				<g id="XMLID_1604_">
					<g id="XMLID_1605_">
						<path id="XMLID_1606_" class="st2" d="M39.9,848.1c-0.2,0.3-2.9-1.6-6.8-2.6c-3.9-1-7.2-0.7-7.2-1.1c-0.1-0.3,3.4-1.2,7.5-0.1
							C37.5,845.4,40.1,847.9,39.9,848.1z"/>
					</g>
				</g>
				<g id="XMLID_1600_">
					<g id="XMLID_1601_">
						<path id="XMLID_1602_" class="st2" d="M43.3,832.2c-0.2,0.3-2.9-2.2-7-2.9c-4.1-0.8-7.5,0.6-7.6,0.3c-0.1-0.1,0.7-0.7,2.1-1.1
							c1.4-0.5,3.5-0.7,5.7-0.3c2.2,0.4,4.1,1.4,5.3,2.3C42.9,831.3,43.4,832.1,43.3,832.2z"/>
					</g>
				</g>
				<g id="XMLID_1597_">
					<g id="XMLID_1598_">
						<path id="XMLID_1599_" class="st2" d="M37.1,826.3c-0.1,0,0-0.8,0.4-2.1c0.4-1.3,1.2-3.1,2.8-5c0.8-0.9,1.7-2,3.4-2.4
							c0.8-0.2,1.9,0.2,2.4,1c0.5,0.8,0.5,1.8,0.3,2.6c-0.8,3.4-4.5,6.1-8.5,5.8c-4-0.4-7-3.4-7.9-6.7c-0.2-0.8-0.2-1.8,0.4-2.7
							c0.6-0.8,1.8-1,2.5-0.7c1.6,0.6,2.4,1.7,3.2,2.6c1.5,1.9,2.4,3.7,2.8,5c0.4,1.3,0.5,2,0.4,2.1c-0.2,0.1-0.8-3-3.9-6.5
							c-0.8-0.8-1.7-1.9-2.8-2.2c-0.6-0.2-1.1-0.1-1.4,0.4c-0.3,0.4-0.3,1.1-0.2,1.8c0.8,2.7,3.6,5.4,6.9,5.7
							c3.4,0.3,6.6-2.1,7.2-4.8c0.2-0.7,0.1-1.4-0.2-1.8c-0.3-0.5-0.8-0.7-1.3-0.6c-1.1,0.2-2.1,1.2-2.9,2
							C37.7,823.3,37.3,826.4,37.1,826.3z"/>
					</g>
				</g>
			</g>
			<g id="XMLID_1594_">
				<g id="XMLID_33_">
					<path id="XMLID_34_" class="st3" d="M232.6,368.8c0.6,0,1.6,457.5,1.6,457.5l-45.1-1.5l-23.5-225.3l-4.6-165.2L123.5,587
						L70,824.5l-39.6-7.6l61.3-451.1l66.1-12.8L232.6,368.8z"/>
				</g>
			</g>
			<g id="XMLID_1176_">
				<g id="XMLID_1591_">
					<g id="XMLID_1592_">
						<path id="XMLID_1593_" class="st4" d="M112.5,86c-6.6-13.1-8.7-36.5-1.1-49.5c7.6-13,22.9-22.4,37.4-26.6
							c2.4-0.7,5-1.3,7.4-0.5c2.4,0.8,4.3,3.4,3.5,5.8c2.8-2.1,5.7-4.2,9-5.2c3.3-1,7.2-0.8,9.9,1.4c2.7,2.2,3.4,6.8,1,9.2
							c4-1.8,9-1,12.2,1.9c3.2,2.9,4.5,7.9,3.1,12c-1.3,4-4.5,8.5-7.4,11.6c-2.9,3.1-3.1,6-2.3,10.1"/>
					</g>
				</g>
				<g id="XMLID_1185_">
					<g id="XMLID_1326_">
						<g id="XMLID_1327_">
							<g id="XMLID_1328_">
								<g id="XMLID_1561_">
									<g id="XMLID_1563_">
										<g id="XMLID_1564_">
											<g id="XMLID_1580_">
												<g id="XMLID_1581_">
													<g id="XMLID_1582_">
														<g id="XMLID_1583_">
															<g id="XMLID_1584_">
																<g id="XMLID_1585_">
																	<g id="XMLID_1586_">
																		<g id="XMLID_1587_">
																			<g id="XMLID_1588_">
																				<g id="XMLID_1589_">
																					<path id="XMLID_1590_" class="st5" d="M167,193.7c-0.4-6.3-1.4-63-1.4-63.3c0,0,21.1-2.6,22-23.6
																						c0.4-10.1-0.4-31-1.3-49.9c-1-20.3-17.5-36.5-37.8-37.1l-2-0.1c-21.8,0.6-33.5,19.5-32.3,41.3l3,121.4"/>
																				</g>
																			</g>
																		</g>
																	</g>
																</g>
															</g>
														</g>
													</g>
												</g>
											</g>
											<g id="XMLID_1565_">
												<g id="XMLID_1566_">
													<g id="XMLID_1568_">
														<g id="XMLID_1569_">
															<g id="XMLID_1570_">
																<g id="XMLID_1572_">
																	<g id="XMLID_1573_">
																		<g id="XMLID_1576_">
																			<g id="XMLID_1577_">
																				<g id="XMLID_1578_">
																					<path id="XMLID_1579_" class="st6" d="M165.6,130.4c0,0-13.2,0.4-27-8.9c0,0,6.3,13.1,27.3,11.9L165.6,130.4z"
																						/>
																				</g>
																			</g>
																		</g>
																	</g>
																</g>
															</g>
														</g>
													</g>
												</g>
											</g>
										</g>
									</g>
								</g>
								<g id="XMLID_1330_">
									<g id="XMLID_1331_">
										<g id="XMLID_1459_">
											<g id="XMLID_1460_">
												<g id="XMLID_1461_">
													<g id="XMLID_1521_">
														<g id="XMLID_1544_">
															<g id="XMLID_1545_">
																<g id="XMLID_1547_">
																	<g id="XMLID_1549_">
																		<g id="XMLID_1550_">
																			<g id="XMLID_1552_">
																				<g id="XMLID_1555_">
																					<g id="XMLID_1556_">
																						<g id="XMLID_1557_">
																							<g id="XMLID_1559_">
																								<path id="XMLID_1560_" class="st2" d="M182.7,71c0,1.6-1.3,2.9-3,2.9c-1.6,0-3-1.2-3-2.8
																									c0-1.6,1.3-2.9,3-2.9C181.4,68.2,182.7,69.5,182.7,71z"/>
																							</g>
																						</g>
																					</g>
																				</g>
																			</g>
																		</g>
																	</g>
																</g>
															</g>
														</g>
														<g id="XMLID_1522_">
															<g id="XMLID_1524_">
																<g id="XMLID_1525_">
																	<g id="XMLID_1527_">
																		<g id="XMLID_1530_">
																			<g id="XMLID_1531_">
																				<g id="XMLID_1533_">
																					<g id="XMLID_1535_">
																						<g id="XMLID_1537_">
																							<g id="XMLID_1538_">
																								<g id="XMLID_1541_">
																									<path id="XMLID_1542_" class="st2" d="M181.4,67c-0.4,0.4-2.6-1.4-5.8-1.5c-3.2-0.1-5.6,1.4-6,1
																										c-0.2-0.2,0.2-0.9,1.3-1.6c1-0.7,2.8-1.4,4.8-1.3c2,0.1,3.7,0.9,4.6,1.7C181.3,66.1,181.6,66.8,181.4,67z"
																										/>
																								</g>
																							</g>
																						</g>
																					</g>
																				</g>
																			</g>
																		</g>
																	</g>
																</g>
															</g>
														</g>
													</g>
													<g id="XMLID_1490_">
														<g id="XMLID_1505_">
															<g id="XMLID_1507_">
																<g id="XMLID_1508_">
																	<g id="XMLID_1509_">
																		<g id="XMLID_1510_">
																			<g id="XMLID_1511_">
																				<g id="XMLID_1512_">
																					<g id="XMLID_1514_">
																						<g id="XMLID_1515_">
																							<g id="XMLID_1516_">
																								<path id="XMLID_1518_" class="st2" d="M150.5,71.5c0,1.6-1.3,2.9-3,2.9c-1.6,0-3-1.2-3-2.8
																									c0-1.6,1.3-2.9,3-2.9C149.1,68.7,150.5,69.9,150.5,71.5z"/>
																							</g>
																						</g>
																					</g>
																				</g>
																			</g>
																		</g>
																	</g>
																</g>
															</g>
														</g>
														<g id="XMLID_1491_">
															<g id="XMLID_1492_">
																<g id="XMLID_1494_">
																	<g id="XMLID_1495_">
																		<g id="XMLID_1496_">
																			<g id="XMLID_1497_">
																				<g id="XMLID_1498_">
																					<g id="XMLID_1499_">
																						<g id="XMLID_1501_">
																							<g id="XMLID_1502_">
																								<g id="XMLID_1503_">
																									<path id="XMLID_1504_" class="st2" d="M149.8,66.6c-0.4,0.4-2.6-1.4-5.8-1.5c-3.2-0.1-5.6,1.4-6,1
																										c-0.2-0.2,0.2-0.9,1.3-1.6c1-0.7,2.8-1.4,4.8-1.3c2,0.1,3.7,0.9,4.6,1.7C149.6,65.7,149.9,66.5,149.8,66.6
																										z"/>
																								</g>
																							</g>
																						</g>
																					</g>
																				</g>
																			</g>
																		</g>
																	</g>
																</g>
															</g>
														</g>
													</g>
													<g id="XMLID_1476_">
														<g id="XMLID_1477_">
															<g id="XMLID_1478_">
																<g id="XMLID_1480_">
																	<g id="XMLID_1481_">
																		<g id="XMLID_1482_">
																			<g id="XMLID_1483_">
																				<g id="XMLID_1484_">
																					<g id="XMLID_1485_">
																						<g id="XMLID_1487_">
																							<g id="XMLID_1488_">
																								<path id="XMLID_1489_" class="st2" d="M160.7,90.9c0-0.2,2-0.5,5.3-0.8c0.8-0.1,1.6-0.2,1.8-0.8
																									c0.2-0.6-0.1-1.5-0.5-2.5c-0.7-2-1.5-4.1-2.2-6.3c-3.1-9-5.3-16.4-5-16.5c0.4-0.1,3.2,7.1,6.3,16.1
																									c0.7,2.2,1.5,4.3,2.1,6.4c0.3,0.9,0.8,2,0.3,3.2c-0.2,0.6-0.9,1-1.4,1.2c-0.5,0.1-1,0.1-1.4,0.2
																									C162.7,91.1,160.7,91.1,160.7,90.9z"/>
																							</g>
																						</g>
																					</g>
																				</g>
																			</g>
																		</g>
																	</g>
																</g>
															</g>
														</g>
													</g>
													<g id="XMLID_1462_">
														<g id="XMLID_1463_">
															<g id="XMLID_1464_">
																<g id="XMLID_1466_">
																	<g id="XMLID_1467_">
																		<g id="XMLID_1468_">
																			<g id="XMLID_1469_">
																				<g id="XMLID_1470_">
																					<g id="XMLID_1471_">
																						<g id="XMLID_1473_">
																							<g id="XMLID_1474_">
																								<path id="XMLID_1475_" class="st2" d="M156,101.3c0.4-0.3,2.3,2.7,6.1,3.2c3.9,0.5,6.8-1.8,7.1-1.4
																									c0.2,0.2-0.3,1-1.7,1.9c-1.3,0.9-3.5,1.6-5.8,1.3c-2.4-0.3-4.1-1.6-5-2.8
																									C155.9,102.4,155.8,101.4,156,101.3z"/>
																							</g>
																						</g>
																					</g>
																				</g>
																			</g>
																		</g>
																	</g>
																</g>
															</g>
														</g>
													</g>
												</g>
											</g>
										</g>
										<g id="XMLID_1348_">
											<g id="XMLID_1349_">
												<g id="XMLID_1351_">
													<g id="XMLID_1352_">
														<g id="XMLID_1354_">
															<g id="XMLID_1371_">
																<g id="XMLID_1373_">
																	<g id="XMLID_1454_">
																		<g id="XMLID_1455_">
																			<g id="XMLID_1456_">
																				<path id="XMLID_1457_" class="st2" d="M151,54c-0.3,0.9-3.5,0.4-7.3,0.7c-3.8,0.3-6.9,1.3-7.4,0.5
																					c-0.2-0.4,0.3-1.2,1.6-2c1.2-0.8,3.2-1.6,5.5-1.7c2.3-0.2,4.3,0.2,5.7,0.9C150.5,52.9,151.1,53.6,151,54z"/>
																			</g>
																		</g>
																	</g>
																</g>
															</g>
														</g>
													</g>
												</g>
											</g>
										</g>
										<g id="XMLID_1333_">
											<g id="XMLID_1334_">
												<g id="XMLID_1335_">
													<g id="XMLID_1337_">
														<g id="XMLID_1338_">
															<g id="XMLID_1340_">
																<g id="XMLID_1341_">
																	<g id="XMLID_1342_">
																		<g id="XMLID_1344_">
																			<g id="XMLID_1345_">
																				<path id="XMLID_1347_" class="st2" d="M180.5,57.7c-0.6,0.7-2.8-0.1-5.4-0.2c-2.7-0.2-4.9,0.3-5.4-0.4
																					c-0.2-0.4,0.2-1.1,1.2-1.8c1-0.7,2.6-1.2,4.5-1.1c1.8,0.1,3.4,0.8,4.3,1.6C180.5,56.5,180.8,57.3,180.5,57.7z"
																					/>
																			</g>
																		</g>
																	</g>
																</g>
															</g>
														</g>
													</g>
												</g>
											</g>
										</g>
									</g>
								</g>
							</g>
						</g>
					</g>
					<g id="XMLID_1190_">
						<g id="XMLID_1203_">
							<g id="XMLID_1204_">
								<g id="XMLID_1206_">
									<g id="XMLID_1207_">
										<g id="XMLID_1208_">
											<g id="XMLID_1209_">
												<g id="XMLID_1210_">
													<g id="XMLID_1211_">
														<g id="XMLID_1212_">
															<g id="XMLID_1213_">
																<path id="XMLID_1214_" class="st5" d="M115.3,76.6c-0.4-0.2-14.3-4.7-14.2,9.6c0,14.3,14.4,11.4,14.4,11
																	C115.5,96.8,115.3,76.6,115.3,76.6z"/>
															</g>
														</g>
													</g>
												</g>
											</g>
										</g>
									</g>
								</g>
							</g>
						</g>
						<g id="XMLID_1191_">
							<g id="XMLID_1192_">
								<g id="XMLID_1193_">
									<g id="XMLID_1194_">
										<g id="XMLID_1195_">
											<g id="XMLID_1196_">
												<g id="XMLID_1197_">
													<g id="XMLID_1198_">
														<g id="XMLID_1199_">
															<g id="XMLID_1200_">
																<g id="XMLID_1201_">
																	<path id="XMLID_1202_" class="st6" d="M111.1,91.7c-0.1,0-0.2,0.2-0.7,0.4c-0.4,0.2-1.1,0.3-1.9,0
																		c-1.5-0.6-2.8-3-2.9-5.5c0-1.3,0.2-2.5,0.7-3.6c0.4-1,1.1-1.8,1.9-1.9c0.8-0.2,1.3,0.3,1.5,0.7
																		c0.2,0.4,0.1,0.7,0.2,0.7c0,0,0.3-0.2,0.2-0.8c-0.1-0.3-0.2-0.6-0.6-0.9c-0.3-0.3-0.9-0.4-1.4-0.4
																		c-1.1,0.1-2.1,1.1-2.6,2.2c-0.6,1.1-0.9,2.5-0.9,4c0.1,2.9,1.6,5.6,3.6,6.2c1,0.3,1.8,0,2.3-0.4
																		C111.1,92.1,111.2,91.8,111.1,91.7z"/>
																</g>
															</g>
														</g>
													</g>
												</g>
											</g>
										</g>
									</g>
								</g>
							</g>
						</g>
					</g>
					<g id="XMLID_1186_">
						<g id="XMLID_63_">
							<g id="XMLID_64_">
								<g id="XMLID_65_">
									<g id="XMLID_66_">
										<path id="XMLID_67_" class="st4" d="M195.4,29.8c1.7,18.6-21.2,26.4-31.3,16c-4.6-4.8-8.7-10.8-15-13
											c-4.3-1.5-9.1-0.7-13.1,1.4c0,0-0.1,0-0.1,0.1c-5.9,3.1-9.4,9.9-10.3,16.5c-1.3,9.2,0.2,17.3-2.2,25.7
											c-0.3,1.2-0.7,2.5-1.8,3.3c-1.7,1.3-4.2,0.2-5.7-1.4c-2.3-2.5-3.1-6.1-3.6-9.5c-1.1-7.7-1.1-15.7,0.9-23.2
											c1.9-7.6,5.8-14.7,11.7-19.9c7.3-6.5,17.2-9.7,27-9.2c9.7,0.5,19.2,4.4,26.8,10.5c3.5,2.8,6.7,6.2,8.5,10.4"/>
									</g>
								</g>
							</g>
						</g>
					</g>
				</g>
				<g id="XMLID_1181_">
					<g id="XMLID_62_">
						<g id="XMLID_68_">
							<g id="XMLID_69_">
								<g id="XMLID_74_">
									<path id="XMLID_75_" class="st7" d="M180.2,19.6c0,0,0.7-0.2,2,0.1c1.3,0.2,3.1,1,4.7,2.6c1.7,1.6,3.2,4.1,3.6,7.2
										c0.4,3.1-0.7,6.6-2.7,9.4c-2.1,2.9-4.9,4.9-7.8,6.1c-2.8,1.2-5.6,1.6-7.8,1.7c-2.3,0.1-4.1,0-5.4-0.2
										c-1.3-0.2-1.9-0.3-1.9-0.4c0-0.2,2.8,0.2,7.2-0.2c2.2-0.2,4.8-0.7,7.5-1.9c2.7-1.1,5.3-3.1,7.3-5.8
										c1.9-2.7,2.9-5.9,2.6-8.7c-0.3-2.8-1.6-5.2-3.1-6.8c-1.5-1.6-3.1-2.4-4.3-2.8C180.9,19.7,180.2,19.7,180.2,19.6z"/>
								</g>
							</g>
						</g>
					</g>
				</g>
				<g id="XMLID_1177_">
					<g id="XMLID_76_">
						<g id="XMLID_77_">
							<g id="XMLID_78_">
								<g id="XMLID_79_">
									<path id="XMLID_80_" class="st7" d="M170.6,13c0-0.1,0.5-0.2,1.4,0.2c0.8,0.4,1.9,1.4,2.2,3.1c0.4,1.7-0.1,3.6-1.1,5.5
										c-1,1.8-2.3,3.8-3.9,5.5c-3.3,3.5-7.3,5.6-10.3,6.5c-3,1-5,0.9-5,0.8c0-0.2,1.9-0.4,4.7-1.6c2.8-1.1,6.5-3.2,9.7-6.5
										c1.6-1.7,2.9-3.5,3.8-5.2c1-1.7,1.5-3.5,1.2-4.9c-0.2-1.4-1-2.4-1.7-2.8C171.1,13.2,170.6,13.1,170.6,13z"/>
								</g>
							</g>
						</g>
					</g>
				</g>
			</g>
			<g id="XMLID_1068_">
				<g id="XMLID_1070_">
					<g id="XMLID_1170_">
						<g id="XMLID_1171_">
							<g id="XMLID_1172_">
								<g id="XMLID_1173_">
									<g id="XMLID_1174_">
										<path id="XMLID_1175_" class="st5" d="M295.4,198.7l98.6-9.4l15.6-3.7c0,0,35.7-6.4,39-7.4c3.9-1.2,5.4,0.4,5.7,1.8
											c0.5,2.3-1.7,4.7-5,5.8c-1.1,0.4-19.3,5.9-19.3,5.9s1.8,0.4,6,2c4.2,1.6,8.1,7.3,9.9,13.8c1.8,6.5,1.7,8.5-0.8,9.3
											c-1,0.3-2,0-2.8-0.5c-1.4-0.9-2.3-2.2-2.8-3.8c-3-10.4-9.4-11.5-9.4-11.5l-2,0.5c0,0,6.5,4.9,6.1,10.5
											c-0.1,0.9-0.3,1.7-0.6,2.4c0.8,2.8,0.2,5.9-1.7,8.1c-2,2.3-5.2,3.3-8.2,2.7c-1.4-0.3-2.9-1.2-3-2.6
											c-0.1-0.8,0.2-1.5,0.5-2.2c0.2-0.4,0.3-0.7,0.4-1.1l-5.9,0.6c0,0-13.4,0.6-19.1,1.5l-92.9,24.1
											c-12.9,3.3-26-4.5-29.1-17.5v0C271.2,213.9,281,200.1,295.4,198.7z"/>
									</g>
								</g>
							</g>
						</g>
					</g>
					<g id="XMLID_1139_">
						<g id="XMLID_1164_">
							<g id="XMLID_1165_">
								<g id="XMLID_1166_">
									<g id="XMLID_1167_">
										<g id="XMLID_1168_">
											<path id="XMLID_1169_" class="st5" d="M396.2,192c0.1,2.1,2.1,3.6,4.1,4.1c2,0.5,4.1,0.3,6.1,0.7
												c6.1,1.1,10.6,6.8,16.7,7.6c0.9,0.1,1.9,0,2.2-0.8c0.3-0.8-0.4-1.5-0.9-2c-4.9-4.7-9.8-9.4-14.8-14.1"/>
										</g>
									</g>
								</g>
							</g>
						</g>
						<g id="XMLID_1142_">
							<g id="XMLID_1144_">
								<g id="XMLID_1151_">
									<g id="XMLID_1156_">
										<g id="XMLID_1162_">
											<g id="XMLID_1163_">
												<path id="XMLID_1372_" class="st6" d="M409.7,187.3c0.1-0.1,0.7,0.4,1.8,1.4c1.1,0.9,2.6,2.3,4.5,4
													c1.9,1.8,4.1,3.9,6.5,6.1c0.6,0.6,1.2,1.2,1.9,1.8c0.6,0.6,1.5,1.2,1.7,2.6c0,0.7-0.5,1.4-1.1,1.6
													c-0.6,0.2-1.1,0.2-1.7,0.2c-1-0.1-2-0.3-2.9-0.7c-3.8-1.4-6.7-3.9-9.6-5.4c-1.5-0.8-2.9-1.4-4.3-1.6
													c-1.4-0.3-2.8-0.3-4.1-0.4c-2.6-0.2-4.7-1.4-5.5-2.6c-0.9-1.3-0.6-2.2-0.6-2.2c0.1,0,0.1,0.8,0.9,1.9
													c0.9,1.1,2.7,2,5.2,2.1c1.2,0.1,2.7,0,4.2,0.3c1.5,0.2,3.1,0.8,4.6,1.6c3.1,1.5,6,3.9,9.5,5.2c0.9,0.3,1.8,0.5,2.6,0.6
													c0.8,0.1,1.6-0.2,1.5-0.6c0-0.5-0.7-1.2-1.3-1.8c-0.6-0.6-1.2-1.2-1.9-1.8c-2.3-2.3-4.5-4.4-6.4-6.3
													c-1.8-1.8-3.2-3.3-4.2-4.3C410.1,187.9,409.6,187.3,409.7,187.3z"/>
											</g>
										</g>
									</g>
								</g>
							</g>
						</g>
					</g>
					<g id="XMLID_1106_">
						<g id="XMLID_1107_">
							<g id="XMLID_1108_">
								<g id="XMLID_1109_">
									<g id="XMLID_1110_">
										<g id="XMLID_1111_">
											<path id="XMLID_1112_" class="st6" d="M428,201.4c0,0.2,1.5-0.6,3.9,0.1c1.1,0.3,2.3,1.2,3.3,2.4
												c0.9,1.3,1.6,2.9,2.2,4.7c0.6,1.8,1.2,3.5,2,5c0.9,1.4,1.9,2.6,3.1,3.2c1.2,0.6,2.4,0.5,3,0.2c0.7-0.3,0.9-0.6,0.9-0.7
												c0-0.1-0.4,0.2-1,0.4c-0.6,0.2-1.6,0.3-2.6-0.4c-1-0.6-2-1.7-2.7-3.1c-0.8-1.4-1.3-3.1-1.9-4.9c-0.6-1.8-1.3-3.5-2.4-4.9
												c-1-1.4-2.4-2.2-3.7-2.5c-1.3-0.3-2.3-0.2-3,0C428.3,201.2,427.9,201.4,428,201.4z"/>
										</g>
									</g>
								</g>
							</g>
						</g>
					</g>
					<g id="XMLID_1095_">
						<g id="XMLID_1096_">
							<g id="XMLID_1097_">
								<g id="XMLID_1098_">
									<g id="XMLID_1099_">
										<g id="XMLID_1104_">
											<path id="XMLID_1105_" class="st6" d="M450.7,185.4c0-0.1-1.4,0.3-3.6,1.1c-2.5,0.8-5.4,1.7-8.6,2.8
												c-3.3,1-6.2,1.9-8.7,2.7c-2.2,0.7-3.6,1.1-3.6,1.2c0,0.1,1.4-0.1,3.7-0.7c2.3-0.5,5.4-1.4,8.8-2.5c3.4-1.1,6.4-2.2,8.6-3
												C449.4,186.1,450.7,185.5,450.7,185.4z"/>
										</g>
									</g>
								</g>
							</g>
						</g>
					</g>
					<g id="XMLID_1089_">
						<g id="XMLID_1090_">
							<g id="XMLID_1091_">
								<g id="XMLID_1092_">
									<g id="XMLID_1093_">
										<g id="XMLID_1094_">
											<path id="XMLID_1350_" class="st6" d="M425.1,206.8c0,0,0.3,0.4,0.7,0.9c0.5,0.6,1.2,1.5,1,2.7c-0.1,0.6-0.5,1.1-1.2,1.4
												c-0.7,0.3-1.5,0.4-2.4,0.6c-0.9,0.2-2,0.4-2.7,1.3c-0.7,0.9-0.9,2.1-0.6,3.2c0.3,1.1,1.2,2,2.1,2.5
												c0.9,0.5,2,0.7,2.9,0.6c1.9-0.3,3.4-0.9,4.6-1.5c1.2-0.6,2.2-1.3,2.7-1.9c0.5-0.6,0.7-1,0.7-1c-0.1,0-0.3,0.3-0.9,0.8
												c-0.6,0.5-1.5,1-2.7,1.6c-1.2,0.5-2.8,1.1-4.5,1.3c-1.6,0.2-3.7-0.7-4.2-2.5c-0.3-0.9-0.1-1.9,0.4-2.5
												c0.5-0.7,1.4-0.9,2.3-1.1c0.9-0.2,1.8-0.3,2.5-0.7c0.8-0.3,1.4-1.1,1.5-1.9c0.1-1.6-0.8-2.5-1.3-3
												C425.5,207,425.2,206.8,425.1,206.8z"/>
										</g>
									</g>
								</g>
							</g>
						</g>
					</g>
					<g id="XMLID_1083_">
						<g id="XMLID_1084_">
							<g id="XMLID_1085_">
								<g id="XMLID_1086_">
									<g id="XMLID_1087_">
										<g id="XMLID_1088_">
											<path id="XMLID_1343_" class="st6" d="M422.6,218.9c0,0-0.4,0-1,0.4c-0.5,0.4-1.2,1.3-1.2,2.7c0,1.3,0.9,2.8,2.5,3.6
												c1.5,0.8,3.5,0.9,5.3,0.3c1.8-0.6,3.4-1.7,4.4-3.1c1-1.3,1.4-2.8,1.6-4c0.1-1.2,0-2.2-0.2-2.9c-0.2-0.7-0.4-1-0.4-1
												c-0.1,0,0.5,1.5,0.1,3.8c-0.2,1.1-0.7,2.5-1.6,3.7c-0.9,1.2-2.3,2.2-4,2.8c-1.7,0.5-3.5,0.5-4.8-0.2
												c-1.3-0.6-2.2-1.9-2.2-3c-0.1-1.1,0.4-2,0.9-2.4C422.2,219.1,422.6,219,422.6,218.9z"/>
										</g>
									</g>
								</g>
							</g>
						</g>
					</g>
					<g id="XMLID_1077_">
						<g id="XMLID_1078_">
							<g id="XMLID_1079_">
								<g id="XMLID_1080_">
									<g id="XMLID_1081_">
										<g id="XMLID_1082_">
											<path id="XMLID_1336_" class="st6" d="M406.6,210.2c0.1,0,0-0.7-0.6-1.7c-0.5-1-1.7-2.3-3.5-3.1l0,0.7
												c0.7-0.3,1.5-0.7,2.3-1.2c4.3-2.5,6.6-6,6.4-6.1c-0.2-0.2-2.6,3-6.8,5.4c-0.8,0.4-1.5,0.8-2.2,1.1l-0.8,0.4l0.8,0.3
												c1.6,0.6,2.7,1.8,3.3,2.6C406.2,209.6,406.5,210.3,406.6,210.2z"/>
										</g>
									</g>
								</g>
							</g>
						</g>
					</g>
					<g id="XMLID_1071_">
						<g id="XMLID_1072_">
							<g id="XMLID_1073_">
								<g id="XMLID_1074_">
									<g id="XMLID_1075_">
										<g id="XMLID_1076_">
											<path id="XMLID_1329_" class="st6" d="M437.5,200.9c-0.1-0.1-1.2,1-1.4,2.8c-0.2,1.8,0.6,3.1,0.8,3
												c0.2-0.1-0.2-1.4,0-2.9C437,202.2,437.7,201.1,437.5,200.9z"/>
										</g>
									</g>
								</g>
							</g>
						</g>
					</g>
				</g>
			</g>
			<g id="XMLID_1044_">
				<g id="XMLID_1066_">
					<path id="XMLID_1067_" class="st8" d="M293.7,247l-64.3-14.8c0,0,3.3,117.9,3.3,119c0,1.1,5.3,3,4.9,11.5l-4.6,10.2l-141,1.9
						l-3.8-114.5l-12.9-88.8l29.6-18.3l10.4-14.1l40.7,42.9l10.1-36.6l-0.3-10.9l10.1,10.9l54.2,15.6l71.6,33.4l48.4-3.7l12.6,42.4
						L293.7,247z"/>
				</g>
				<g id="XMLID_1063_">
					<g id="XMLID_1064_">
						<path id="XMLID_1065_" class="st2" d="M161.5,168.7c-0.1,0.1,1.8,0.6,2.9,3.2c0.6,1.3,0.9,3,0.9,5c0.1,2,0,4.3,1,6.7l0.5,1.2
							l0.5-1.2c1.4-3.1,2.3-6.7,3.2-10.4c1.7-7.4,2.8-14.1,3.5-19c0.7-4.9,1-7.9,0.9-8c-0.2,0-0.7,3-1.7,7.8
							c-0.9,4.8-2.2,11.6-3.9,18.9c-0.9,3.7-1.8,7.3-3,10.3l1,0c-0.9-2.1-0.9-4.4-1-6.4c-0.1-2-0.5-3.8-1.2-5.2
							c-0.7-1.4-1.6-2.2-2.3-2.6C162,168.7,161.5,168.7,161.5,168.7z"/>
					</g>
				</g>
				<g id="XMLID_1060_">
					<g id="XMLID_1061_">
						<path id="XMLID_1062_" class="st2" d="M109.3,150.7c-0.1,0.1,0.4,0.8,1.4,2c0.9,1.2,2.3,3,4.1,5.1c3.5,4.3,8.4,10.1,13.8,16.6
							c3.1,3.6,6.1,7.1,8.7,10.1l0.7,0.8l0.2-1c1.2-4.9,2.2-9.1,2.9-12.1c0.3-1.5,1.1-2.3,1.9-2.3c0.8-0.1,1,0.4,1.1,0.3
							c0.1,0-0.2-0.6-1.1-0.7c-0.4,0-1,0.1-1.5,0.6c-0.5,0.5-0.8,1.1-1,1.9c-0.9,2.9-2,7-3.3,12l0.9-0.2c-2.6-3.1-5.5-6.5-8.6-10.2
							c-5.5-6.4-10.4-12.2-14.1-16.3c-1.8-2.1-3.3-3.7-4.4-4.9C110,151.3,109.4,150.7,109.3,150.7z"/>
					</g>
				</g>
				<g id="XMLID_1057_">
					<g id="XMLID_1058_">
						<path id="XMLID_1059_" class="st2" d="M169.3,339.1c0,0,0.1-0.5,0.1-1.5c0-1.1,0.1-2.6,0.1-4.4c0.1-3.8,0.1-9.3,0-16.1
							c-0.2-13.6-0.8-32.4-2.3-53.1c-1.6-20.7-3.7-39.4-5.6-52.8c-0.9-6.7-1.8-12.2-2.4-15.9c-0.3-1.8-0.6-3.2-0.7-4.3
							c-0.2-1-0.3-1.5-0.3-1.5c0,0,0,0.5,0.1,1.5c0.1,1.1,0.3,2.6,0.5,4.3c0.5,3.9,1.2,9.3,2,16c1.7,13.5,3.7,32.1,5.2,52.8
							c1.5,20.7,2.3,39.4,2.7,53c0.2,6.7,0.3,12.1,0.4,16.1c0.1,1.8,0.1,3.3,0.1,4.4C169.2,338.5,169.3,339.1,169.3,339.1z"/>
					</g>
				</g>
				<g id="XMLID_1053_">
					<g id="XMLID_1054_">
						<path id="XMLID_1055_" class="st2" d="M180.8,366.7c0.3,0.1,1.2-4.5,1.1-10.1c-0.2-5.6-0.9-10.1-1.2-10.1
							c-0.4,0-0.2,4.6,0,10.1C180.8,362.2,180.5,366.6,180.8,366.7z"/>
					</g>
				</g>
				<g id="XMLID_1049_">
					<g id="XMLID_1050_">
						<path id="XMLID_1051_" class="st2" d="M123,333.6c0,0.1,1.3,0.6,3.6,1.4c2.4,0.8,5.8,1.9,10.1,3.1c8.6,2.5,20.5,5.5,34,7.9
							c13.4,2.4,25.7,3.7,34.6,4.3c4.5,0.3,8.1,0.5,10.6,0.5c2.5,0.1,3.9,0,3.9,0c0-0.1-1.4-0.2-3.9-0.4c-2.7-0.2-6.2-0.5-10.5-0.9
							c-8.9-0.8-21.1-2.3-34.5-4.6c-13.4-2.4-25.3-5.2-33.9-7.5c-4.2-1.1-7.6-2.1-10.2-2.8C124.4,333.9,123,333.5,123,333.6z"/>
					</g>
				</g>
				<g id="XMLID_1045_">
					<g id="XMLID_1047_">
						<path id="XMLID_1048_" class="st2" d="M230.1,257c0.3,0,0.5-16.7,0.5-37.4c-0.1-20.6-0.4-37.4-0.7-37.4
							c-0.3,0-0.5,16.7-0.5,37.4C229.4,240.2,229.7,257,230.1,257z"/>
					</g>
				</g>
			</g>
		</g>
		<g id="XMLID_1041_">
			<path id="XMLID_1042_" class="st8" d="M77.9,169.8c0,0-17.8,15.2-18.9,23.9c-0.9,6.7-18.4,69.3-26.2,97.4
				c-2.5,8.7-1.9,18,1.5,26.5l22.7,56.2L93.6,352l-18.4-52.7l15.2-44.7L77.9,169.8z"/>
		</g>
		<g id="XMLID_1037_">
			<g id="XMLID_1039_">
				<path id="XMLID_1040_" class="st2" d="M56.9,373.7c0,0,0.2-0.1,0.7-0.3c0.5-0.3,1.2-0.6,2-1.1c1.8-1,4.3-2.4,7.4-4.3
					c6.5-3.8,15.7-9.1,26.9-15.7l0.3-0.2l-0.1-0.4c-5.1-14.9-11.4-32.9-18.2-52.7l0,0.4c2.2-5.8,4.4-11.8,6.7-18
					c5.4-14.5,10.5-28.3,15.2-40.9l0,0c4.7-9.8,8.7-19.2,9.8-28.3c0.5-4.5,0.4-8.8-0.4-12.7c-0.8-3.9-2.1-7.3-3.7-10.2
					c-3.1-5.8-6.8-9.6-9.5-12c-1.3-1.2-2.4-2-3.2-2.5c-0.8-0.5-1.2-0.8-1.2-0.8s0.3,0.3,1.1,0.9c0.7,0.6,1.8,1.4,3.1,2.6
					c2.6,2.4,6.1,6.2,9.1,12c1.5,2.9,2.8,6.3,3.5,10.1c0.8,3.8,0.8,8,0.3,12.4c-1.2,8.9-5.2,18.2-9.9,27.9l0,0l0,0
					c-4.7,12.6-9.9,26.4-15.3,40.9c-2.3,6.2-4.5,12.2-6.7,18l-0.1,0.2l0.1,0.2c7,19.8,13.3,37.8,18.5,52.7l0.2-0.5
					c-11.1,6.7-20.2,12.2-26.7,16c-3.1,1.9-5.5,3.4-7.3,4.5c-0.8,0.5-1.4,0.9-1.9,1.2C57.1,373.5,56.9,373.7,56.9,373.7z"/>
			</g>
		</g>
		<g id="XMLID_1034_" class="st9">
			<g id="XMLID_1035_">
				<path id="XMLID_1036_" d="M151.6,178c-2.5,0.1-5,1.5-5.5,4c-0.5,2.5-0.1,5-0.8,7.4c-0.6,2.4-2.8,4.8-5.3,4.3
					c-1.5-0.3-2.6-1.6-3.5-2.7c-4.8-6.2-8.7-13.9-11.5-21.1c0.1,0.2,12.6,14.5,12.6,14.5c0.4-3.6,1.5-7.2,2.8-10.5
					c0.4-1.1,0.9-2.9,2-3.4c1.7-0.8,4,1.7,5.1,3.2c1.1,1.5,3.6,4.1,3.9,4.2"/>
			</g>
		</g>
		<g id="XMLID_1030_" class="st9">
			<g id="XMLID_1031_">
				<path id="XMLID_1033_" d="M172.1,165c-0.4,7.9-1.6,16.1-4.6,23.4c-0.3,0.7-0.6,1.5-1.2,2c-0.6,0.5-1.5,0.8-2.2,0.3
					c-0.5-0.3-2.1-4.3-2.3-4.8c-1.2-3.2-5.9-3.5-5.9-3.5s1.9-8.4,3.1-10.8c0.5-1.1,1.7-2.1,2.9-1.9c1.5,0.2,3.1,2.2,3.2,3.7
					c0.7,5.8,0.6,8.5,1.5,10.6c2.2-6.2,4-13.7,5.5-19.1"/>
			</g>
		</g>
		<g id="XMLID_1027_" class="st9">
			<g id="XMLID_1028_">
				<path id="XMLID_1029_" d="M137.2,337.4c-2.3-1.3-2.6-4.9-1.1-7c1.5-2.2,4.5-3,7.1-2.7c2.6,0.3,5,1.7,7.2,3.2
					c2.2,1.6,4.1,3.3,6.4,4.7c5.6,3.4,12.4,4.2,18.9,4.3c6.5,0.1,13.2-0.4,19.6,0.9c6.4,1.2,12.8,4.6,15.9,10.3
					C211.2,351.1,155.3,347.1,137.2,337.4z"/>
			</g>
		</g>
		<g id="XMLID_1023_">
			<g id="XMLID_1025_">
				<path id="XMLID_1026_" class="st5" d="M100.7,419.5c7.9-5.2,11.4-10.2,14.6-15.1c-0.1-0.2-0.1-0.4,0-0.5
					c0.1-0.2,0.3-0.3,0.6-0.3c1.8-2.8,3.2-5.3,4.3-7.5c-4.6-3-10.5-7.5-4-8.4c8-1.1,13.7-5,14.5-7.1c0.8-2.1-1.8-4-4-2.7
					c-1.7,1.1-5.1,2-7.7,2.7c-2.1,0.5-4.3,0.7-6.5,0.4c-1.4-0.1-6.1-3.4-11.2-5.8c-0.7-0.3-1.5-0.4-2.3-0.3l-1.9-0.1
					c-2.1-0.1-4-1.4-4.9-3.2l-7.4-14.2l-22.3,13.2L80,394.9C80,394.9,92.2,411.1,100.7,419.5z"/>
			</g>
		</g>
		<g id="XMLID_169_">
			<g id="XMLID_1012_">
				<path id="XMLID_1022_" class="st10" d="M96.1,422.1c0.1,0.1,2.1-0.6,5.1-2.4c3-1.8,7-4.8,10.6-8.8c3.6-4,6.1-8.3,7.5-11.5
					c1.5-3.2,2-5.3,1.8-5.4c-0.4-0.2-3.1,8.2-10.3,16.1C103.9,418.1,95.8,421.7,96.1,422.1z"/>
			</g>
		</g>
		<g id="XMLID_152_">
			<g id="XMLID_153_">
				<path id="XMLID_154_" class="st10" d="M166.3,436.4c0,0,0.2,0,0.6-0.2c0.4-0.2,0.9-0.5,1.6-1c1.3-1,2.7-3,3.6-5.8
					c1-2.7,1.6-6.1,2.5-9.7c0.8-3.7,1.7-7.7,2.5-12c1.7-8.5,3-16.3,3.8-22c0.4-2.8,0.7-5.1,0.9-6.7c0.2-1.6,0.2-2.5,0.1-2.5
					c-0.1,0-0.3,0.8-0.6,2.4c-0.3,1.8-0.8,4-1.2,6.6c-1,5.6-2.4,13.3-4.1,21.9c-0.9,4.2-1.7,8.3-2.4,12c-0.8,3.7-1.4,7-2.2,9.7
					c-0.8,2.7-2.1,4.6-3.2,5.7C167.1,436,166.2,436.3,166.3,436.4z"/>
			</g>
		</g>
		<g id="XMLID_149_">
			<g id="XMLID_150_">
				<path id="XMLID_151_" class="st10" d="M168.2,385.3c0-0.1-0.4-0.1-1,0.1c-0.6,0.2-1.5,0.8-2.1,1.8c-0.6,1-0.8,2.8,0.2,4.2
					c0.9,1.3,2.8,2.3,4.8,1.8c1.9-0.5,3.1-2.3,3.3-3.9c0.3-1.7-0.5-3.1-1.4-3.9c-1.9-1.6-3.6-1.1-3.5-1c0,0.2,1.5,0.1,2.9,1.6
					c0.7,0.7,1.2,1.9,0.9,3.1c-0.2,1.2-1.2,2.5-2.6,2.9c-1.4,0.4-2.9-0.3-3.6-1.3c-0.8-1-0.7-2.3-0.3-3.2
					C166.7,385.7,168.3,385.5,168.2,385.3z"/>
			</g>
		</g>
		<g id="XMLID_24_">
			<g id="XMLID_25_">
				<path id="XMLID_26_" class="st10" d="M216.5,376.2c-0.1,0-0.7,2-0.6,5.2c0.1,3.3,1,7.8,3.3,12.3c2.4,4.4,5.7,7.7,8.4,9.6
					c2.7,1.9,4.7,2.5,4.7,2.4c0.1-0.2-1.7-1.1-4.2-3.1c-2.5-2-5.6-5.2-7.9-9.5c-2.3-4.3-3.3-8.6-3.6-11.8
					C216.5,378.2,216.7,376.2,216.5,376.2z"/>
			</g>
		</g>
	</g>
	<path id="XMLID_1100_" class="st11" d="M177.4,103.3c-4.4,2.6-7.4-4-15.4-4c-8.1,0-9.4,7.1-15,3.8c-4.4-2.5,7-9.7,15-9.7
		C170,93.5,182.3,100.5,177.4,103.3z"/>
	<path id="XMLID_22_" class="st11" d="M188.1,106.4c0,13.5-11.6,24.5-25.9,24.5c-14.3,0-45.2-22.7-45.2-36.2s30.3,13.3,44.6,13.3
		S188.1,92.8,188.1,106.4z"/>
</g>
</svg>
