<?xml version="1.0" encoding="utf-8"?>
<!-- Generator: Adobe Illustrator 19.0.0, SVG Export Plug-In . SVG Version: 6.00 Build 0)  -->
<svg version="1.1" id="Warstwa_1" xmlns="http://www.w3.org/2000/svg" xmlns:xlink="http://www.w3.org/1999/xlink" x="0px" y="0px"
	 viewBox="0 0 400 900" style="enable-background:new 0 0 400 900;" xml:space="preserve">
<style type="text/css">
	.st0{fill:#F4BD37;}
	.st1{fill:#FCCEB9;}
	.st2{fill:#FFAD8D;}
	.st3{fill:#EB996E;}
	.st4{fill:#474646;}
	.st5{opacity:0.6;fill:#FFFFFF;}
	.st6{opacity:0.6;}
	.st7{fill:#FFFFFF;}
	.st8{fill:#1A2E35;}
	.st9{fill:#1B748C;}
	.st10{fill:#375A64;}
	.st11{fill:#1E1E1D;}
	.st12{fill:#FFB140;}
	.st13{opacity:0.3;}
	.st14{opacity:0.2;}
</style>
<g id="XMLID_21_">
	<g id="XMLID_8_">
		<path id="XMLID_9_" class="st0" d="M184.1,20.6C152.9-5.5,127,39.5,120.7,52.9c-6.3,13.5-8.9,26.8-11.7,40.9
			c-2.8,14.1-13.2,30.1-22.1,41.6c-10.5,13.4-27.3,22.1-30.8,38.6c-2.8,13,5,23.7,0.4,36.5c-3.6,10.1-13,15.9-19.5,24.2
			c-12.2,15.7-12.3,37.4-11.1,55.5c0.5,7.5,1.4,15.8,6.5,18.4c7.1,3.6,16.9-5.6,24.7-13.3c21.6-21.4,46-37.4,70.4-46.1"/>
	</g>
	<g id="XMLID_1603_">
		<g id="XMLID_1215_">
			<g id="XMLID_1216_">
				<path id="XMLID_1915_" class="st1" d="M75.4,323.4l0.3,31.6l13.3,20.7c0,0,2.8,0,3.1-3.7s-1.5-10.7-1.5-10.7l26.2,30.9
					c1.2,1.4,3.4,1.6,4.7,0.3l0,0c1.2-1.1,1.4-3,0.5-4.3l-11.9-17.1c0,0,7.9,1.7,6.2-7.3c0,0,7.5-4.3,1.6-14.3
					c-5.8-10.1-17.3-25.8-17.3-25.8l-15.8,2.2L75.4,323.4z"/>
			</g>
			<g id="XMLID_1217_">
				<g id="XMLID_1218_">
					<path id="XMLID_1219_" class="st2" d="M110.7,369.6c-0.1,0.1-1.8-1.7-4.5-4.7c-1.4-1.6-2.9-3.4-4.6-5.3c-0.8-1-1.9-2.1-2.5-3.6
						c-0.3-0.8-0.4-1.6-0.3-2.5c0.1-0.9,0.6-1.8,1.3-2.4c1.5-1.1,3.4-1.2,4.9-0.6c1.5,0.6,2.6,1.7,3.5,2.7c1.7,2.1,3.1,4,4.3,5.6
						c2.4,3.2,3.8,5.3,3.7,5.4c-0.1,0.1-1.8-1.7-4.4-4.8c-1.4-1.6-2.9-3.5-4.5-5.4c-0.9-0.9-1.8-1.9-3-2.3c-1.1-0.4-2.7-0.4-3.6,0.4
						c-1,0.7-1.1,2.2-0.6,3.4c0.5,1.2,1.4,2.2,2.2,3.3c1.6,2,3,3.8,4.4,5.5C109.4,367.4,110.9,369.5,110.7,369.6z"/>
				</g>
			</g>
			<g id="XMLID_1220_">
				<g id="XMLID_1221_">
					<path id="XMLID_1222_" class="st2" d="M114,359.6c-0.1,0.1-1.8-1.7-4.5-4.7c-1.4-1.6-2.9-3.4-4.6-5.3c-0.8-1-1.9-2.1-2.5-3.6
						c-0.3-0.8-0.4-1.6-0.3-2.5c0.1-0.9,0.6-1.8,1.3-2.4c1.5-1.1,3.4-1.2,4.9-0.6c1.5,0.6,2.6,1.7,3.5,2.7c1.7,2.1,3.1,4,4.3,5.6
						c2.4,3.2,3.8,5.3,3.7,5.4c-0.1,0.1-1.8-1.7-4.4-4.8c-1.4-1.6-2.9-3.5-4.5-5.4c-0.9-0.9-1.8-1.9-3-2.3c-1.1-0.4-2.7-0.4-3.6,0.4
						c-1,0.7-1.1,2.2-0.6,3.4c0.5,1.2,1.4,2.2,2.2,3.3c1.6,2,3,3.8,4.4,5.5C112.7,357.5,114.1,359.5,114,359.6z"/>
				</g>
			</g>
			<g id="XMLID_1223_">
				<g id="XMLID_1224_">
					<path id="XMLID_1225_" class="st2" d="M87.3,339.1c0.1-0.1,1.3,0.8,2.3,3.1c0.9,2.2,1.4,5.7,0,9.2c-0.5,1.1-1.1,2.1-1.8,3
						l0.1-0.7c2.2,4.9,3.7,8.6,3.4,8.8c-0.3,0.1-2.2-3.4-4.5-8.2l-0.2-0.4l0.3-0.3c0.6-0.8,1.2-1.7,1.6-2.7c1.3-3.1,1-6.3,0.4-8.4
						C88,340.4,87.1,339.2,87.3,339.1z"/>
				</g>
			</g>
		</g>
		<g id="XMLID_1226_">
			<g id="XMLID_1227_">
				<path id="XMLID_1903_" class="st1" d="M313.7,174.4l-7.1,18v13l23.1,4.8l9.4-9.4l14-22.2c0.9-1.4,0.6-3.3-0.7-4.4l-3.9-3.3
					l0.2-0.9c0.5-2.7-0.9-5.3-3.5-6.3l-3.1-1.2l6.9-15c1-2.1,0.4-4.6-1.3-6.2l0,0L327,166.2l-10.9,2.4L313.7,174.4z"/>
			</g>
			<g id="XMLID_1228_">
				<g id="XMLID_1229_">
					<path id="XMLID_1230_" class="st3" d="M348.8,170.2c0.1,0.1-0.8,1.6-2.7,3.8c-1,1.1-2.1,2.3-3.7,3.5c-0.8,0.6-1.9,1.1-3.1,1.1
						c-1.2,0-2.6-0.6-3.2-1.9c-0.6-1.2-0.4-2.5-0.1-3.6c0.4-1.1,0.9-1.9,1.3-2.8c0.9-1.5,1.7-3,2.5-4.4c1.4-2.5,2.4-4,2.6-3.9
						c0.2,0.1-0.5,1.7-1.8,4.3c-0.7,1.4-1.5,2.9-2.2,4.5c-0.9,1.6-1.9,3.5-1.1,5.2c0.4,0.8,1.1,1.2,2,1.2c0.9,0,1.7-0.3,2.4-0.8
						c1.4-1,2.7-2.3,3.7-3.2C347.5,171.4,348.7,170.1,348.8,170.2z"/>
				</g>
			</g>
			<g id="XMLID_1231_">
				<g id="XMLID_1232_">
					<path id="XMLID_1233_" class="st2" d="M353.4,177.1c0.1,0.1-0.8,1.6-2.4,4c-0.8,1.2-1.7,2.6-3.3,4c-1.4,1.4-4.5,2.4-6.5,0.1
						c-0.9-1.1-0.8-2.6-0.4-3.6c0.3-1.1,0.8-2,1.2-2.8c0.9-1.7,1.9-3.2,2.8-4.3c1.9-2.3,3.4-3.3,3.5-3.2c0.1,0.1-1.1,1.4-2.7,3.8
						c-0.8,1.2-1.7,2.6-2.5,4.3c-0.4,0.8-0.8,1.7-1.1,2.7c-0.3,0.9-0.3,1.9,0.2,2.5c0.5,0.6,1.5,0.9,2.3,0.8
						c0.9-0.1,1.7-0.5,2.4-1.1c1.4-1.1,2.4-2.6,3.3-3.7C352.1,178.3,353.3,177,353.4,177.1z"/>
				</g>
			</g>
			<g id="XMLID_1234_">
				<g id="XMLID_1235_">
					<path id="XMLID_1236_" class="st2" d="M325.8,193.3c-0.2-0.1,1.5-1.8,2.2-5.2c0.4-1.7,0.3-3.8-0.3-6.2
						c-0.6-2.3-1.6-4.9-3.6-6.6l-1.3-1l1.6-0.1c1.4-0.1,2.8-0.5,4.2-1c2-0.8,3.7-2.1,4.9-3.5c1.2-1.5,1.8-3.3,1.6-4.9l0.7,0.5
						c-3.7,0.8-6.9,1.4-9.1,1.7c-2.2,0.4-3.5,0.5-3.5,0.4c0-0.1,1.2-0.5,3.4-1.1c2.2-0.6,5.2-1.3,8.9-2.2l0.6-0.1l0.1,0.6
						c0.3,1.9-0.4,4.1-1.7,5.8c-1.3,1.7-3.2,3.1-5.4,4c-1.5,0.6-3.1,1-4.6,1.1l0.3-1.1c2.5,2.1,3.4,4.9,3.9,7.3
						c0.6,2.4,0.6,4.8,0,6.6c-0.5,1.8-1.3,3.1-1.9,3.9C326.3,193,325.9,193.3,325.8,193.3z"/>
				</g>
			</g>
		</g>
		<g id="XMLID_1237_">
			<g id="XMLID_1238_">
				<g id="XMLID_1239_">
					<polygon id="XMLID_1891_" class="st1" points="284,771.9 292.1,846.4 263.8,848.5 249.2,777 					"/>
				</g>
			</g>
			<g id="XMLID_1240_">
				<path id="XMLID_1888_" class="st4" d="M259.8,833.1c0,0,22.7,13.5,31-2.5l3.5,6.6l17.7,48.1c1.1,3.1,0.2,6.9-2.4,8.5
					c-2,1.3-4.4,1.1-6.2-0.4c-9.6-7.9-44.9-37.1-45.1-41.8l-1.3-12.3C256.7,836.9,257.8,834.4,259.8,833.1L259.8,833.1z"/>
				<path id="XMLID_1887_" class="st5" d="M308.6,894.4l-50.8-46.9l0.3,2.7c0.1,2.9,1.4,3.9,2.8,5.6c4.3,5,15.7,15.7,42.3,37.8
					C304.8,894.8,306.8,895.1,308.6,894.4L308.6,894.4z"/>
				<g id="XMLID_1241_" class="st6">
					<path id="XMLID_1886_" class="st7" d="M263.3,838.4c1.5,0.9,2.3,3.2,1.6,5c-0.7,1.8-2.8,2.7-4.3,1.8c-1.5-0.8-2.5-3.6-1.6-5.3
						c0.9-1.7,3.4-2.6,4.7-1.3"/>
				</g>
				<g id="XMLID_1242_">
					<path id="XMLID_1884_" class="st8" d="M292.5,868.8c0.3,0.1,1.2-3.4,4.3-5.7c3-2.4,6.2-2,6.2-2.4c0-0.2-0.7-0.5-2.1-0.5
						c-1.3,0-3.2,0.5-4.9,1.8c-1.7,1.3-2.8,3.1-3.3,4.5C292.3,867.8,292.4,868.8,292.5,868.8z"/>
				</g>
				<g id="XMLID_1243_">
					<path id="XMLID_1882_" class="st8" d="M297.5,876.6c0.3,0.2,1.8-2.1,4.6-3.5c2.7-1.5,5.3-1.3,5.3-1.7c0.1-0.3-2.7-1.3-5.8,0.4
						C298.5,873.5,297.2,876.5,297.5,876.6z"/>
				</g>
				<g id="XMLID_1244_">
					<path id="XMLID_1880_" class="st8" d="M283.8,859.1c0.3,0.3,2.6-3.4,6.8-5.9c4.1-2.7,8-3.1,8-3.5c0-0.4-4.2-0.6-8.6,2.3
						C285.6,854.7,283.5,859,283.8,859.1z"/>
				</g>
				<g id="XMLID_1245_">
					<path id="XMLID_1878_" class="st8" d="M281,844.1c0.2,0.4,3.1-1.6,7.1-2.4c4-0.9,7.3-0.2,7.3-0.6c0.1-0.3-3.3-1.7-7.6-0.8
						C283.6,841.2,280.8,843.8,281,844.1z"/>
				</g>
				<g id="XMLID_1246_">
					<path id="XMLID_1876_" class="st8" d="M290.3,841.2c0.1,0,0-0.9-0.6-2.3c-0.5-1.4-1.5-3.4-3.3-5.4c-0.9-0.9-1.9-2.1-3.6-2.4
						c-0.9-0.1-1.9,0.4-2.3,1.5c-0.4,1-0.3,2.1,0,3.1c1.2,3.8,5.2,6.4,9.1,5.6c4-1,6.7-4.7,7.2-8.6c0.1-1,0-2.1-0.7-3
						c-0.7-0.9-1.9-0.9-2.6-0.4c-1.5,0.9-2.2,2.3-2.9,3.4c-1.3,2.4-2,4.6-2.3,6.1c-0.3,1.5-0.3,2.4-0.2,2.4c0.2,0.1,0.5-3.5,3.2-7.9
						c0.7-1.1,1.5-2.3,2.6-2.9c0.5-0.3,1.1-0.2,1.4,0.2c0.3,0.4,0.5,1.2,0.4,2c-0.5,3.2-3,6.6-6.3,7.4c-3.3,0.8-6.8-1.5-7.8-4.6
						c-0.2-0.7-0.3-1.6,0-2.1c0.2-0.6,0.7-0.9,1.3-0.8c1.2,0.1,2.2,1.1,3.1,1.9C289.3,837.8,290.1,841.3,290.3,841.2z"/>
				</g>
			</g>
		</g>
		<g id="XMLID_1247_">
			<g id="XMLID_1248_">
				<g id="XMLID_1249_">
					<polygon id="XMLID_1872_" class="st1" points="176,761 177.2,842.4 144.1,840.5 138.8,761.7 					"/>
				</g>
			</g>
			<g id="XMLID_1250_">
				<g id="XMLID_1251_">
					<g id="XMLID_1252_">
						<g id="XMLID_1253_">
							<g id="XMLID_1254_">
								<path id="XMLID_1869_" class="st4" d="M140.9,834.6L140.9,834.6c0,0-41.2,18.2-41.7,27.2l79.7-0.2L179,837l-2.9,0.8
									C164.3,841,152.1,839.9,140.9,834.6z"/>
							</g>
						</g>
					</g>
					<g id="XMLID_1255_" class="st6">
						<g id="XMLID_1256_">
							<g id="XMLID_1257_">
								<g id="XMLID_1258_">
									<path id="XMLID_1865_" class="st7" d="M169.8,841.6c1.5,0.5,2.6,2.5,2.3,4.4c-0.4,1.8-2.1,3.2-3.7,2.7
										c-1.6-0.5-2.9-2.9-2.4-4.7c0.5-1.8,2.7-3.2,4.1-2.3"/>
								</g>
							</g>
						</g>
					</g>
					<g id="XMLID_1259_" class="st6">
						<g id="XMLID_1260_">
							<g id="XMLID_1261_">
								<path id="XMLID_1860_" class="st7" d="M178.9,861.6l0.1-7.7l-76.6,3c0,0-3.5,1.8-3.1,4.8L178.9,861.6z"/>
							</g>
						</g>
					</g>
					<g id="XMLID_1262_">
						<g id="XMLID_1263_">
							<g id="XMLID_1264_">
								<g id="XMLID_1265_">
									<path id="XMLID_1856_" class="st8" d="M139.6,834.1c0,0.5,2,0.7,3.9,2.1c2,1.4,2.9,3.4,3.3,3.2c0.4-0.1-0.2-2.8-2.6-4.6
										C141.9,833.2,139.5,833.7,139.6,834.1z"/>
								</g>
							</g>
						</g>
					</g>
					<g id="XMLID_1266_">
						<g id="XMLID_1267_">
							<g id="XMLID_1268_">
								<g id="XMLID_1269_">
									<path id="XMLID_1851_" class="st8" d="M131.2,838.3c-0.1,0.4,1.6,1.2,2.9,3.2c1.4,1.9,1.7,4,2.1,4c0.4,0.1,0.6-2.6-1.1-5
										C133.5,838,131.2,837.8,131.2,838.3z"/>
								</g>
							</g>
						</g>
					</g>
					<g id="XMLID_1270_">
						<g id="XMLID_1271_">
							<g id="XMLID_1272_">
								<g id="XMLID_1273_">
									<path id="XMLID_1846_" class="st8" d="M126.5,850.1c0.4,0.1,0.9-2.2-0.1-4.7c-1-2.5-2.8-3.5-3-3.1c-0.2,0.4,1,1.7,1.8,3.8
										C126,848.1,126.1,850.1,126.5,850.1z"/>
								</g>
							</g>
						</g>
					</g>
				</g>
				<g id="XMLID_1274_">
					<g id="XMLID_1275_">
						<g id="XMLID_1276_">
							<g id="XMLID_1277_">
								<path id="XMLID_1840_" class="st8" d="M140.5,833.9c0,0.2,1.5,0.5,4,0c1.2-0.3,2.7-0.7,4.2-1.5c0.8-0.4,1.5-0.9,2.3-1.4
									c0.4-0.3,0.8-0.6,1.2-1.1c0.4-0.5,0.7-1.7,0.2-2.5c-0.4-0.7-1.1-1-1.7-1c-0.6,0-1.1,0.1-1.5,0.2c-0.9,0.3-1.7,0.6-2.5,1
									c-1.5,0.8-2.8,1.9-3.7,2.9c-1.8,2-2.5,3.8-2.3,3.8c0.2,0.2,1.1-1.3,3-3c0.9-0.8,2.1-1.7,3.6-2.4c0.7-0.3,1.5-0.6,2.3-0.8
									c0.8-0.3,1.6-0.3,1.8,0.2c0.1,0.2,0.1,0.2-0.1,0.5c-0.2,0.3-0.5,0.5-0.9,0.8c-0.7,0.5-1.4,1-2.1,1.4
									c-1.4,0.8-2.7,1.4-3.9,1.8C142,833.5,140.4,833.6,140.5,833.9z"/>
							</g>
						</g>
					</g>
				</g>
				<g id="XMLID_1278_">
					<g id="XMLID_1279_">
						<g id="XMLID_1280_">
							<g id="XMLID_1281_">
								<path id="XMLID_1835_" class="st8" d="M141,834.5c0.1,0.1,0.9-1.6,1-4.6c0.1-1.5-0.1-3.3-0.6-5.2c-0.2-0.9-0.6-1.9-1-2.9
									c-0.5-0.9-1-2.2-2.5-2.4c-0.8,0-1.4,0.7-1.7,1.3c-0.3,0.6-0.3,1.2-0.4,1.7c-0.1,1.1-0.1,2.2,0,3.2c0.3,2,1,3.7,1.7,4.9
									c1.6,2.4,3.2,3,3.2,2.8c0.1-0.2-1.2-1.1-2.4-3.5c-0.6-1.2-1.1-2.7-1.3-4.4c-0.1-0.9-0.1-1.8,0.1-2.7c0.1-1,0.4-1.8,0.8-1.7
									c0.4,0,1.1,0.7,1.4,1.5c0.4,0.8,0.7,1.7,1,2.6c0.5,1.7,0.7,3.3,0.8,4.7C141.2,832.7,140.8,834.5,141,834.5z"/>
							</g>
						</g>
					</g>
				</g>
			</g>
		</g>
		<g id="XMLID_1282_">
			<g id="XMLID_1283_">
				<path id="XMLID_1284_" class="st9" d="M268.5,421.6c-2-44-35.7-92-35.7-92l-52-4.4l0-0.2l-1.1,0.1h0l0,0l-59.8,4.9
					c0,0-26.3,57.4-19.5,125.8c6.8,68.4,30,320.1,30,320.1h54.8l1.2-364.2l55.5,376.6h54.9C296.8,788.2,270.4,465.5,268.5,421.6z"/>
			</g>
			<g id="XMLID_1285_">
				<polygon id="XMLID_1286_" class="st10" points="123.7,756.1 131.3,782.1 187.2,781.9 190.5,758 				"/>
			</g>
			<g id="XMLID_1287_">
				<polygon id="XMLID_1824_" class="st10" points="235.5,775.2 246.2,798 298.3,792.1 297.3,766.1 				"/>
			</g>
			<g id="XMLID_1288_">
				<g id="XMLID_1289_">
					<path id="XMLID_1290_" class="st10" d="M188.6,411.3c0,0-0.3,0-0.8,0c-0.5-0.1-1.3-0.3-2.2-1c-1.7-1.2-3.3-3.9-4.1-7.5
						c-1.3-7.1-2.5-16.8-3.7-27.7c-1.1-10.8-2-20.7-2.5-27.8c-0.3-3.6-0.4-6.4-0.5-8.4c-0.1-2-0.1-3.1,0-3.1c0.1,0,0.3,1.1,0.5,3.1
						c0.2,2.2,0.6,5.1,0.9,8.4c0.8,7.4,1.8,17,2.9,27.7c1.2,10.8,2.2,20.6,3.3,27.6c0.6,3.4,2.1,6,3.5,7.2
						C187.4,411.2,188.6,411.2,188.6,411.3z"/>
				</g>
			</g>
			<g id="XMLID_1291_">
				<g id="XMLID_1292_">
					<path id="XMLID_1293_" class="st10" d="M183.9,333.3c0-0.1,0.4-0.3,1.3-0.4c0.9-0.1,2.3-0.1,3.7,0.8c1.4,0.9,2.8,2.5,3.2,4.7
						c0.2,1.1,0.1,2.4-0.6,3.5c-0.6,1.1-1.7,1.9-2.9,2.4c-2.4,0.9-5.3,0.4-6.8-1.5c-1.5-1.8-1.6-4-1.2-5.6c0.4-1.6,1.3-2.7,1.9-3.3
						C183.4,333.4,183.9,333.3,183.9,333.3c0.2,0.2-1.8,1.2-2.3,4.1c-0.3,1.4-0.1,3.3,1.2,4.6c1.2,1.4,3.4,1.8,5.4,1
						c2-0.7,3.1-2.7,2.8-4.5c-0.3-1.8-1.4-3.3-2.5-4.1C186,332.8,183.9,333.6,183.9,333.3z"/>
				</g>
			</g>
		</g>
		<g id="XMLID_1294_">
			<g id="XMLID_1297_">
				<path id="XMLID_1298_" class="st11" d="M101,196.8l7.2,79.7l-0.5,42.1c0,0,5.3,11.4,11.7,11.3l110.7,0c2,0,4.3-1.3,6.5-3.2
					c6.9-6.1,8.7-16.2,5.2-24.7l-14.2-34.6l4.7-81.2l-9.7-31.3l-3.1-9.1l-56.1-3.6l-53.1-1.6L101,196.8z"/>
			</g>
			<g id="XMLID_1299_">
				<path id="XMLID_1811_" class="st11" d="M213.7,145.6c0,0,35.6-0.6,43.8,19.4c4.9,11.7,44.1,84.5,53.8,113.4
					c0,0-11.7,26-20.6,28.9l0,0c-24.1,6.2-40.2-13.4-46.5-29.9l-17.2-45.8L213.7,145.6z"/>
			</g>
			<g id="XMLID_1295_">
				<path id="XMLID_1296_" class="st11" d="M112.3,193.4l-36.8,34.5l28.3,97.5l-33.5,2l-41.6-91.2c-1.8-20.4,2-36.6,10.9-46.1
					c15.4-16.5,38.4-40.8,39.7-39.2C81.2,153.2,112.3,193.4,112.3,193.4z"/>
			</g>
			<g id="XMLID_1300_">
				<path id="XMLID_1301_" class="st11" d="M306.6,199.3l-9,17.5L270,275.4l12.2,33.1c0.1,0-0.1,0,0,0c13.9,2.4,29.1-16.9,33-30.4
					l21.7-72.6L306.6,199.3z"/>
			</g>
			<g id="XMLID_1302_">
				<g id="XMLID_1303_">
					<path id="XMLID_1304_" class="st8" d="M306.6,199.3c0.3,0.2-9,19.4-20.9,43c-11.8,23.6-21.7,42.6-22,42.4
						c-0.3-0.2,9-19.4,20.9-43C296.4,218.1,306.3,199.1,306.6,199.3z"/>
				</g>
			</g>
			<g id="XMLID_1305_">
				<g id="XMLID_1306_">
					<path id="XMLID_1307_" class="st8" d="M231,207.6c0.4,0-0.1,13.5-1.1,30c-0.9,16.6-2,29.9-2.4,29.9c-0.4,0,0.1-13.5,1.1-30
						C229.5,221,230.6,207.6,231,207.6z"/>
				</g>
			</g>
			<g id="XMLID_1308_">
				<g id="XMLID_1309_">
					<path id="XMLID_1310_" class="st8" d="M137.6,323.1c-0.1,0.3-3.8-0.8-6.6-4.5c-2.8-3.7-2.9-7.7-2.6-7.6c0.4-0.1,1,3.5,3.6,6.8
						C134.6,321.2,137.8,322.7,137.6,323.1z"/>
				</g>
			</g>
			<g id="XMLID_1311_">
				<g id="XMLID_1312_">
					<path id="XMLID_1313_" class="st8" d="M154.6,321.9c-0.2,0.2-2.5-2-4.1-5.5c-1.6-3.5-1.7-6.7-1.3-6.7c0.4-0.1,1,2.9,2.5,6.2
						C153.2,319.2,154.9,321.7,154.6,321.9z"/>
				</g>
			</g>
			<g id="XMLID_1314_">
				<g id="XMLID_1315_">
					<path id="XMLID_1316_" class="st8" d="M183.8,307.3c0.3-0.2,1.9,3.7,0.9,8.5c-0.9,4.8-3.9,7.8-4.1,7.5
						c-0.3-0.2,1.9-3.3,2.8-7.8C184.3,311.1,183.4,307.4,183.8,307.3z"/>
				</g>
			</g>
			<g id="XMLID_1317_">
				<g id="XMLID_1318_">
					<path id="XMLID_1319_" class="st8" d="M209.8,309.7c0.3-0.1,1.1,3.7,0,8.1c-1.1,4.5-3.6,7.4-3.8,7.2c-0.3-0.2,1.5-3.3,2.6-7.5
						C209.6,313.3,209.4,309.7,209.8,309.7z"/>
				</g>
			</g>
			<g id="XMLID_1320_">
				<g id="XMLID_1321_">
					<path id="XMLID_1322_" class="st12" d="M211.4,145.6c0,0,0.1,0.4,0.1,1.3c0,0.8,0,2.1,0,3.7c-0.1,3.2-0.5,7.9-2.1,13.5
						c-1.6,5.5-4.9,12-10.8,17c-5.8,5-14.2,8.4-23.1,8.3c-4.5-0.1-8.8-1-12.6-2.7c-3.8-1.7-7.1-4.4-9.4-7.5
						c-4.7-6.3-6.2-13.2-7.1-18.9c-0.8-5.7-0.8-10.4-0.7-13.6c0.1-1.6,0.2-2.8,0.3-3.7c0.1-0.8,0.2-1.3,0.2-1.3c0.1,0,0,1.8,0,5
						c0,3.2,0.2,7.8,1.1,13.4c1,5.5,2.7,12.3,7.2,18.3c2.3,2.9,5.3,5.4,9,7.1c3.7,1.7,7.8,2.5,12.1,2.6c8.6,0,16.7-3.1,22.3-8
						c5.8-4.8,9-11,10.7-16.3c1.7-5.4,2.2-10,2.4-13.2C211.3,147.4,211.3,145.6,211.4,145.6z"/>
				</g>
			</g>
			<g id="XMLID_1323_">
				<g id="XMLID_1324_">
					<path id="XMLID_1325_" class="st12" d="M177.6,188.2c0.3,0.1-1.1,4-3.2,8.7l-0.5,1.2l-0.6-1.1c-0.1-0.2-0.3-0.5-0.4-0.7
						c-2.7-4.9-4.7-8.9-4.3-9.1c0.3-0.2,2.8,3.6,5.5,8.5c0.1,0.2,0.3,0.5,0.4,0.7l-1.2,0.1C175.4,191.7,177.3,188.1,177.6,188.2z"/>
				</g>
			</g>
			<g id="XMLID_1355_" class="st13">
				<g id="XMLID_1356_">
					<path id="XMLID_1357_" d="M290.2,231.6c-1.4-2.9,0,0-1.4-2.9c-5.9,9-16.1,23.7-22,32.7c-2,3.1-4.1,6.3-4.9,9.9
						c-0.8,3.6,0,7.8,2.8,10.1L290.2,231.6z"/>
				</g>
			</g>
			<g id="XMLID_1358_" class="st13">
				<g id="XMLID_1359_">
					<path id="XMLID_1360_" d="M78.8,241.8c-1.1-5-3.3-9.8-6.6-13.7c-3.3-3.9-7.7-6.9-12.7-8.3c-1.1-0.3-2.3-0.5-3.5-0.3
						c-1.1,0.2-2.2,1-2.5,2.2c-0.5,1.9,1.2,3.5,2.8,4.6c7.3,5.4,14.7,10.6,22.2,15.7"/>
				</g>
			</g>
			<g id="XMLID_1361_">
				<g id="XMLID_1362_">
					<path id="XMLID_1363_" class="st8" d="M211.8,244.6c0,0.1-1.7,0.8-4.8,1.2c-3,0.4-7.3,0.2-11.8-1.2c-4.5-1.4-8.1-3.7-10.4-5.8
						c-2.3-2-3.4-3.6-3.2-3.7c0.2-0.1,1.4,1.2,3.8,3c2.4,1.8,5.9,3.9,10.2,5.3c4.3,1.3,8.4,1.7,11.4,1.6
						C209.9,244.8,211.7,244.4,211.8,244.6z"/>
				</g>
			</g>
			<g id="XMLID_1364_">
				<g id="XMLID_1365_">
					<path id="XMLID_1366_" class="st8" d="M212.6,292.6c0,0-0.3,0.1-1,0.2c-0.7,0.1-1.7,0.2-2.9,0.3c-2.5,0.2-6.3,0.2-10.8-0.3
						c-9.1-0.9-21.7-4.3-33.3-12.2c-11.6-7.9-19.4-18.4-23.5-26.5c-2.1-4.1-3.5-7.5-4.2-9.9c-0.4-1.2-0.6-2.2-0.8-2.8
						c-0.2-0.7-0.2-1-0.2-1c0.1,0,0.6,1.3,1.5,3.7c0.9,2.4,2.4,5.7,4.6,9.7c4.3,7.9,12,18.1,23.4,25.9c11.4,7.8,23.7,11.3,32.6,12.4
						c4.5,0.6,8.1,0.7,10.7,0.7C211.2,292.6,212.6,292.5,212.6,292.6z"/>
				</g>
			</g>
			<g id="XMLID_1367_" class="st14">
				<g id="XMLID_1368_">
					<path id="XMLID_1369_" d="M201,293.9c4.7,0.4-1.4-9.4-5.6-11.6c-4.2-2.2-9.1-2.3-13.7-3c-16.7-2.4-32.1-12.4-41.2-26.5
						C140.5,252.7,158.7,290.4,201,293.9z"/>
				</g>
			</g>
			<ellipse id="XMLID_13_" class="st11" cx="103.7" cy="173.7" rx="34.4" ry="33"/>
		</g>
		<g id="XMLID_1370_">
			<g id="XMLID_1375_">
				<g id="XMLID_1376_">
					<g id="XMLID_1377_">
						<g id="XMLID_1378_">
							<g id="XMLID_1379_">
								<g id="XMLID_1380_">
									<g id="XMLID_1381_">
										<g id="XMLID_1382_">
											<g id="XMLID_1383_">
												<g id="XMLID_1384_">
													<g id="XMLID_1385_">
														<g id="XMLID_1386_">
															<g id="XMLID_1387_">
																<path id="XMLID_1734_" class="st1" d="M200,33.2l0.1,7.8l2.2,116.3c0.2,13.5-10.7,23.1-25.1,23.2l0,0
																	c-14.6,0.1-22.6-9-23-22.6c-0.4-14.3-1.2-29.3-1.2-29.3s-18.5-2.6-23-26.5c-2.2-11.9-2.2-31.5-1.6-47.6
																	c0.5-14.4,12.9-25.6,27.3-24.4L200,33.2z"/>
															</g>
														</g>
													</g>
												</g>
											</g>
										</g>
										<g id="XMLID_1388_">
											<g id="XMLID_1389_">
												<g id="XMLID_1390_">
													<g id="XMLID_1391_">
														<g id="XMLID_1392_">
															<g id="XMLID_1393_">
																<g id="XMLID_1394_">
																	<path id="XMLID_1727_" class="st8" d="M139.4,68.4c0,1.6,1.4,3,3.1,3c1.7,0,3.1-1.2,3.1-2.9c0-1.6-1.4-3-3.1-3
																		C140.8,65.5,139.4,66.8,139.4,68.4z"/>
																</g>
															</g>
														</g>
													</g>
												</g>
											</g>
											<g id="XMLID_1395_">
												<g id="XMLID_1396_">
													<g id="XMLID_1397_">
														<g id="XMLID_1398_">
															<g id="XMLID_1399_">
																<g id="XMLID_1400_">
																	<g id="XMLID_1401_">
																		<path id="XMLID_1720_" class="st8" d="M132.9,64.6c0.4,0.4,2.7-1.4,6-1.5c3.3-0.1,5.8,1.5,6.1,1.1
																			c0.2-0.2-0.2-0.9-1.3-1.6c-1.1-0.7-2.9-1.4-4.9-1.4c-2.1,0.1-3.8,0.9-4.8,1.7C133.1,63.6,132.7,64.4,132.9,64.6z"
																			/>
																	</g>
																</g>
															</g>
														</g>
													</g>
												</g>
											</g>
										</g>
										<g id="XMLID_1402_">
											<g id="XMLID_1403_">
												<g id="XMLID_1404_">
													<g id="XMLID_1405_">
														<g id="XMLID_1406_">
															<g id="XMLID_1407_">
																<g id="XMLID_1408_">
																	<path id="XMLID_1711_" class="st8" d="M172.3,68.4c0,1.6,1.4,3,3.1,3c1.7,0,3.1-1.2,3.1-2.9c0-1.6-1.4-3-3.1-3
																		C173.7,65.5,172.3,66.8,172.3,68.4z"/>
																</g>
															</g>
														</g>
													</g>
												</g>
											</g>
											<g id="XMLID_1409_">
												<g id="XMLID_1410_">
													<g id="XMLID_1411_">
														<g id="XMLID_1412_">
															<g id="XMLID_1413_">
																<g id="XMLID_1414_">
																	<g id="XMLID_1415_">
																		<path id="XMLID_1704_" class="st8" d="M165.5,64.3c0.4,0.4,2.7-1.4,6-1.5c3.3-0.1,5.8,1.5,6.1,1.1
																			c0.2-0.2-0.2-0.9-1.3-1.6c-1.1-0.7-2.9-1.4-4.9-1.4c-2.1,0.1-3.8,0.9-4.8,1.7C165.7,63.4,165.4,64.1,165.5,64.3z"
																			/>
																	</g>
																</g>
															</g>
														</g>
													</g>
												</g>
											</g>
										</g>
										<g id="XMLID_1416_">
											<g id="XMLID_1417_">
												<g id="XMLID_1418_">
													<g id="XMLID_1419_">
														<g id="XMLID_1420_">
															<g id="XMLID_1421_">
																<g id="XMLID_1422_">
																	<path id="XMLID_1695_" class="st8" d="M154.2,89.2c0-0.2-2.1-0.5-5.4-0.8c-0.8-0.1-1.7-0.2-1.8-0.8
																		c-0.2-0.6,0.1-1.5,0.5-2.5c0.7-2.1,1.5-4.2,2.3-6.5c3.2-9.3,5.5-16.9,5.2-17c-0.4-0.1-3.3,7.3-6.5,16.6
																		c-0.8,2.3-1.5,4.5-2.2,6.6c-0.3,1-0.8,2.1-0.3,3.3c0.2,0.6,0.9,1.1,1.4,1.2c0.5,0.2,1,0.1,1.4,0.2
																		C152.1,89.4,154.2,89.4,154.2,89.2z"/>
																</g>
															</g>
														</g>
													</g>
												</g>
											</g>
										</g>
										<g id="XMLID_1423_">
											<g id="XMLID_1424_">
												<g id="XMLID_1425_">
													<g id="XMLID_1426_">
														<g id="XMLID_1427_">
															<g id="XMLID_1428_">
																<path id="XMLID_1687_" class="st2" d="M153,128.5c0,0,16.2,0.6,31.9-9.5c0,0-7.4,16.7-31.5,15.1L153,128.5z"/>
															</g>
														</g>
													</g>
												</g>
											</g>
										</g>
										<g id="XMLID_1429_">
											<g id="XMLID_1430_">
												<g id="XMLID_1431_">
													<g id="XMLID_1432_">
														<g id="XMLID_1433_">
															<g id="XMLID_1434_">
																<path id="XMLID_1680_" class="st3" d="M155.8,97.2c1.1-1.6,3.2-2.5,5.3-2.4c1.4,0.1,2.9,0.8,3.8,1.9
																	c0.9,1.1,1.1,2.8,0.4,3.9c-0.9,1.3-2.7,1.6-4.3,1.2c-1.6-0.4-3-1.4-4.3-2.4c-0.4-0.3-0.7-0.6-1-1
																	c-0.2-0.4-0.3-0.9,0-1.2"/>
															</g>
														</g>
													</g>
												</g>
											</g>
										</g>
										<g id="XMLID_1435_">
											<g id="XMLID_1436_">
												<g id="XMLID_1437_">
													<g id="XMLID_1438_">
														<g id="XMLID_1439_">
															<g id="XMLID_1440_">
																<g id="XMLID_1441_">
																	<path id="XMLID_1673_" class="st8" d="M164,91.2c-0.5,0-0.4,3.6-3.5,6.2c-3,2.6-6.9,2.3-6.9,2.9
																		c0,0.2,0.9,0.7,2.5,0.7c1.6,0,3.9-0.6,5.7-2.2c1.8-1.6,2.6-3.7,2.7-5.2C164.7,92.1,164.3,91.2,164,91.2z"/>
																</g>
															</g>
														</g>
													</g>
												</g>
											</g>
										</g>
									</g>
								</g>
							</g>
							<g id="XMLID_1442_">
								<g id="XMLID_1443_">
									<g id="XMLID_1444_">
										<g id="XMLID_1445_">
											<g id="XMLID_1446_">
												<g id="XMLID_1447_">
													<path id="XMLID_1662_" class="st0" d="M164.5,54.6c0.4,0.9,3.7,0.4,7.6,0.7c3.9,0.3,7.1,1.3,7.6,0.5
														c0.2-0.4-0.4-1.2-1.6-2.1c-1.3-0.8-3.3-1.6-5.7-1.8c-2.3-0.2-4.5,0.2-5.9,0.9C165,53.5,164.3,54.2,164.5,54.6z"/>
												</g>
											</g>
										</g>
									</g>
								</g>
							</g>
							<g id="XMLID_1448_">
								<g id="XMLID_1449_">
									<g id="XMLID_1450_">
										<g id="XMLID_1451_">
											<g id="XMLID_1452_">
												<g id="XMLID_1453_">
													<path id="XMLID_1655_" class="st0" d="M132.8,57.9c0.7,0.7,3.5-0.1,6.8-0.3c3.3-0.2,6.2,0.3,6.8-0.5
														c0.3-0.4-0.2-1.1-1.4-1.8c-1.2-0.7-3.3-1.2-5.6-1.1c-2.3,0.1-4.3,0.9-5.4,1.7C132.9,56.7,132.5,57.5,132.8,57.9z"/>
												</g>
											</g>
										</g>
									</g>
								</g>
							</g>
						</g>
					</g>
				</g>
			</g>
		</g>
	</g>
	<g id="XMLID_10_">
		<g id="XMLID_11_">
			<path id="XMLID_12_" class="st0" d="M222.6,167.3l12.8,8.4c0,0,1.2-5.8,1.2-5.8c0-0.1,6.9-24.9-4.6-48.5
				c-11.5-23.7,14.6-22,7.3-50.4c-2.4-9.4-5.6-18.3-11.1-25.8c-1-1.3-1.8-2.8-2.6-4.3c-2-4-3.4-8.3-5.7-12c-1.8-2.8-4.2-5.2-7.1-6.3
				c-1.5-1.4-3.1-2.7-5-3.7c-8.1-4.5-17.9-3.6-27.1-2.7c-9,0.9-36.5-0.5-38.1,25.5c2.7-3.4,16.2-11.7,19.1-6.4c2,3.7,2.6,6.6,1.9,11
				c-1,5.8-1.6,12.4,3.9,16c1.3,0.9,2.9,1.3,4.5,1.5c5.4,0.5,12.3-6.5,21.2-1.1c0,0,8.2,6.5,6.5,13.2c-1.7,6.7-9.1,17.6-5.4,25.4
				c3.7,7.8,4.8,7.9,2.9,12.8c-0.4,1.1-0.7,1.9-1,2.5c-3.4,7.6-15.2,46.1,17.1,43.9L222.6,167.3"/>
		</g>
	</g>
	<g id="XMLID_14_">
		<g id="XMLID_15_">
			<path id="XMLID_16_" class="st10" d="M242.5,349.7c0,0.1-1.7,0.8-4.8,1.2c-3,0.4-7.3,0.2-11.8-1.2c-4.5-1.4-8.1-3.7-10.4-5.8
				c-2.3-2-3.4-3.6-3.2-3.7c0.2-0.1,1.4,1.2,3.8,3c2.4,1.8,5.9,3.9,10.2,5.3c4.3,1.3,8.4,1.7,11.4,1.6
				C240.7,349.9,242.5,349.5,242.5,349.7z"/>
		</g>
	</g>
	<g id="XMLID_17_">
		<g id="XMLID_18_">
			<path id="XMLID_19_" class="st10" d="M114.7,349.7c0,0.1,1.7,0.8,4.8,1.2c3,0.4,7.3,0.2,11.8-1.2c4.5-1.4,8.1-3.7,10.4-5.8
				c2.3-2,3.4-3.6,3.2-3.7c-0.2-0.1-1.4,1.2-3.8,3c-2.4,1.8-5.9,3.9-10.2,5.3c-4.3,1.3-8.4,1.7-11.4,1.6
				C116.6,349.9,114.7,349.5,114.7,349.7z"/>
		</g>
	</g>
</g>
</svg>
