<?xml version="1.0" encoding="utf-8"?>
<!-- Generator: Adobe Illustrator 19.0.0, SVG Export Plug-In . SVG Version: 6.00 Build 0)  -->
<svg version="1.1" id="Warstwa_1" xmlns="http://www.w3.org/2000/svg" xmlns:xlink="http://www.w3.org/1999/xlink" x="0px" y="0px"
	 viewBox="0 0 400 900" style="enable-background:new 0 0 400 900;" xml:space="preserve">
<style type="text/css">
	.st0{fill:#FCCEB9;}
	.st1{fill:#FFAD8D;}
	.st2{fill:#375A64;}
	.st3{fill:#1A2E35;}
	.st4{fill:#FAFAFA;}
	.st5{fill:#727272;}
	.st6{opacity:0.4;}
	.st7{fill:#A8A8A8;}
	.st8{fill:#CECECE;}
	.st9{fill:#381D09;}
	.st10{fill:#FF9A6C;}
	.st11{fill:#4C290A;}
</style>
<g id="XMLID_20_">
	<g id="XMLID_1123_">
		<g id="XMLID_119_">
			<g id="XMLID_142_">
				<g id="XMLID_146_">
					<g id="XMLID_147_">
						<path id="XMLID_1554_" class="st0" d="M248,257.6l1.3,40.1l31.5-36.7l30.4-4.9c0,0-19,47.9-37.4,67.3
							c-18.5,19.5-28.4,22.2-35.4,22.5c-9.6,0.4-15.7-16.2-15.7-16.2l-2.4-62.6L248,257.6z"/>
					</g>
				</g>
				<g id="XMLID_143_">
					<g id="XMLID_144_">
						<g id="XMLID_145_">
							<path id="XMLID_1551_" class="st1" d="M250.6,296.3c-0.2-0.1-1.8,2.8-2.9,6.8c-1.1,4-1.2,7.3-1,7.3c0.3,0,0.8-3.2,1.9-7.1
								C249.7,299.5,250.8,296.5,250.6,296.3z"/>
						</g>
					</g>
				</g>
			</g>
			<g id="XMLID_137_">
				<g id="XMLID_140_">
					<g id="XMLID_141_">
						<path id="XMLID_1546_" class="st2" d="M292.6,181.8h31.2c4.7,0,8.9,5.5,7.2,10l-31.4,61.2c-1.2,2.4-3.7,3.9-6.3,3.9l-38.1-0.1
							c-4.4-0.6-6-5.4-4.1-8.1l30.3-59.9C283.5,184.5,287.8,181.8,292.6,181.8z"/>
					</g>
				</g>
				<g id="XMLID_138_">
					<g id="XMLID_139_">
						<path id="XMLID_1543_" class="st3" d="M294.7,185.5h31.2c3.9,0,6.4,4.1,4.7,7.6l-30.6,59.8c-1.2,2.4-3.7,3.9-6.3,3.9h-37.6
							c-2.3,0-3.8-2.4-2.7-4.5l30.3-59.9C285.6,188.2,289.9,185.5,294.7,185.5z"/>
					</g>
				</g>
			</g>
			<g id="XMLID_123_">
				<g id="XMLID_135_">
					<g id="XMLID_136_">
						<path id="XMLID_1539_" class="st0" d="M297.3,210.5l19,7.6l4.1,15.3l-9.2,22.8l-32.8,10.4l9.1-15.5l-1.3-8.7
							c0,0-9.4-2.9-9.6-4.4c-0.2-1.4,1.2-6.2,2.6-6.5c1.4-0.2,11.3,3.4,11.3,3.4s-11.6-9.2-11.3-10.7c0.3-1.5,1.6-5.3,3.9-5.7
							c2.3-0.4,21.1,8.4,21.1,8.4l3,6.9l2.7-11.1C309.9,222.8,293.2,218.1,297.3,210.5z"/>
					</g>
				</g>
				<g id="XMLID_131_">
					<g id="XMLID_132_">
						<g id="XMLID_133_">
							<path id="XMLID_134_" class="st1" d="M294.9,246.4c0.1,0,0.5-0.7,0.6-1.9c0.2-1.2,0.1-3-0.6-4.8c-0.7-1.8-1.8-3.2-2.7-4
								c-0.9-0.8-1.7-1.1-1.7-1c-0.2,0.2,2.3,2,3.5,5.4C295.4,243.4,294.6,246.4,294.9,246.4z"/>
						</g>
					</g>
				</g>
				<g id="XMLID_127_">
					<g id="XMLID_128_">
						<g id="XMLID_129_">
							<path id="XMLID_130_" class="st1" d="M303.9,243.1c0.1-0.1-0.6-1.9-0.8-5c-0.1-1.5-0.2-3.5-1-5.5c-0.4-1-0.9-2.1-1.7-2.9
								c-0.8-0.9-2-1.5-3.1-2c-4.5-1.6-8.6-3-11.6-3.9c-3-1-4.9-1.5-4.9-1.4c0,0.1,1.7,0.9,4.7,2c2.9,1.1,7,2.6,11.5,4.2
								c1.1,0.4,2.1,1,2.8,1.7c0.7,0.7,1.2,1.7,1.6,2.6c0.7,1.9,0.9,3.7,1.1,5.3C302.9,241.4,303.8,243.2,303.9,243.1z"/>
						</g>
					</g>
				</g>
				<g id="XMLID_124_">
					<g id="XMLID_125_">
						<g id="XMLID_126_">
							
								<ellipse id="XMLID_1528_" transform="matrix(0.1629 0.9866 -0.9866 0.1629 490.458 -106.0156)" class="st1" cx="307.7" cy="236" rx="3.7" ry="0.5"/>
						</g>
					</g>
				</g>
			</g>
			<g id="XMLID_120_">
				<g id="XMLID_121_">
					<circle id="XMLID_122_" class="st4" cx="304.8" cy="197" r="4"/>
				</g>
			</g>
		</g>
		<g id="XMLID_55_">
			<g id="XMLID_56_">
				<g id="XMLID_108_">
					<g id="XMLID_114_">
						<g id="XMLID_115_">
							<g id="XMLID_116_">
								<g id="XMLID_117_">
									<g id="XMLID_118_">
										<path id="XMLID_1519_" class="st5" d="M308.6,880l-7.3-25.6l-48.3,2.6l7.4,37.6l3,0c13.4,0,68.3-0.8,77.1-4
											C350.4,887,308.6,880,308.6,880z"/>
									</g>
								</g>
							</g>
						</g>
					</g>
					<g id="XMLID_109_" class="st6">
						<g id="XMLID_110_">
							<g id="XMLID_111_">
								<g id="XMLID_112_">
									<g id="XMLID_113_">
										<path id="XMLID_1513_" d="M277.9,893.3c-0.9-4-3.4-7.7-6.8-10c-3.4-2.4-9.5-3.1-13.6-2.6l2.7,13.2L277.9,893.3z"/>
									</g>
								</g>
							</g>
						</g>
					</g>
				</g>
				<g id="XMLID_103_">
					<g id="XMLID_104_">
						<g id="XMLID_105_" class="st6">
							<g id="XMLID_106_">
								<g id="XMLID_107_">
									<path id="XMLID_1506_" d="M329,884.1c0,0,14.7,3.4,13,5.9c-1.7,2.5-57.1,5.4-81.7,4.6l0-1.1l64.7-2.9
										C325.1,890.6,326.2,884.4,329,884.1z"/>
								</g>
							</g>
						</g>
					</g>
				</g>
				<g id="XMLID_97_">
					<g id="XMLID_98_">
						<g id="XMLID_99_">
							<g id="XMLID_100_">
								<g id="XMLID_101_">
									<g id="XMLID_102_">
										<path id="XMLID_1500_" class="st3" d="M259.6,893.5c0,0,0.3,0,0.8,0c0.7,0,1.5,0,2.4,0c2.4,0,5.4-0.1,8.8-0.1
											c7.5-0.1,17.8-0.4,29.2-1c11.4-0.6,21.7-1.4,29.1-2c3.5-0.3,6.4-0.6,8.8-0.8c0.9-0.1,1.7-0.2,2.4-0.3
											c0.5-0.1,0.8-0.1,0.8-0.1c0,0-0.3,0-0.8,0c-0.7,0-1.5,0.1-2.4,0.2c-2.4,0.2-5.3,0.4-8.8,0.6c-7.4,0.5-17.7,1.2-29.1,1.8
											c-11.4,0.6-21.7,1-29.1,1.2c-3.5,0.1-6.4,0.2-8.8,0.3c-0.9,0-1.7,0.1-2.4,0.1C259.9,893.5,259.6,893.5,259.6,893.5z"/>
									</g>
								</g>
							</g>
						</g>
					</g>
				</g>
				<g id="XMLID_91_">
					<g id="XMLID_92_">
						<g id="XMLID_93_">
							<g id="XMLID_94_">
								<g id="XMLID_95_">
									<g id="XMLID_96_">
										<path id="XMLID_1493_" class="st3" d="M325.1,891.4c0.2,0,0.2-2.1,1.4-4.3c1.2-2.2,2.9-3.4,2.8-3.5c0-0.1-2.1,0.9-3.3,3.3
											C324.7,889.2,325,891.4,325.1,891.4z"/>
									</g>
								</g>
							</g>
						</g>
					</g>
				</g>
				<g id="XMLID_85_">
					<g id="XMLID_86_">
						<g id="XMLID_87_">
							<g id="XMLID_88_">
								<g id="XMLID_89_">
									<g id="XMLID_90_">
										
											<ellipse id="XMLID_1486_" transform="matrix(-0.4904 0.8715 -0.8715 -0.4904 1233.6934 1044.2142)" class="st3" cx="311.6" cy="882.8" rx="2.4" ry="0.3"/>
									</g>
								</g>
							</g>
						</g>
					</g>
				</g>
				<g id="XMLID_79_">
					<g id="XMLID_80_">
						<g id="XMLID_81_">
							<g id="XMLID_82_">
								<g id="XMLID_83_">
									<g id="XMLID_84_">
										
											<ellipse id="XMLID_1479_" transform="matrix(-0.7075 0.7067 -0.7067 -0.7075 1148.5573 1287.7542)" class="st3" cx="307.8" cy="881.6" rx="2" ry="0.3"/>
									</g>
								</g>
							</g>
						</g>
					</g>
				</g>
				<g id="XMLID_73_">
					<g id="XMLID_74_">
						<g id="XMLID_75_">
							<g id="XMLID_76_">
								<g id="XMLID_77_">
									<g id="XMLID_78_">
										
											<ellipse id="XMLID_1472_" transform="matrix(-0.9991 4.170507e-002 -4.170507e-002 -0.9991 648.6854 1743.3533)" class="st3" cx="306.2" cy="878.4" rx="2.5" ry="0.3"/>
									</g>
								</g>
							</g>
						</g>
					</g>
				</g>
				<g id="XMLID_69_">
					<g id="XMLID_70_">
						<g id="XMLID_71_">
							<g id="XMLID_72_">
								<g id="XMLID_839_">
									<g id="XMLID_840_">
										<path id="XMLID_1465_" class="st3" d="M302.6,875.4c0,0.1,1.2,0.6,2.9,0.7c1.7,0,2.9-0.4,2.9-0.5c0-0.2-1.3,0-2.9,0
											C303.9,875.4,302.6,875.2,302.6,875.4z"/>
									</g>
								</g>
							</g>
						</g>
					</g>
				</g>
				<g id="XMLID_841_">
					<g id="XMLID_842_">
						<g id="XMLID_843_">
							<g id="XMLID_844_">
								<g id="XMLID_845_">
									<g id="XMLID_846_">
										<path id="XMLID_1458_" class="st3" d="M311.8,880.5c0,0.1,1.2,0.1,3.1-0.2c1-0.2,2.1-0.5,3.3-0.9c0.6-0.2,1.2-0.4,1.9-0.9
											c0.3-0.2,0.6-0.5,0.7-1c0.1-0.5-0.2-1-0.5-1.2c-3.1-1.4-6,0.4-7,2c-0.6,0.8-0.8,1.6-0.9,2.1c-0.1,0.5-0.1,0.8,0,0.8
											c0.1,0,0.1-1.2,1.3-2.7c0.6-0.7,1.4-1.5,2.6-1.9c1.1-0.4,2.6-0.6,3.7,0.1c0.5,0.3,0.4,0.9-0.2,1.3
											c-0.5,0.4-1.1,0.6-1.7,0.8c-1.2,0.5-2.2,0.8-3.2,1C313,880.4,311.8,880.5,311.8,880.5z"/>
									</g>
								</g>
							</g>
						</g>
					</g>
				</g>
				<g id="XMLID_64_">
					<g id="XMLID_65_">
						<g id="XMLID_66_">
							<g id="XMLID_67_">
								<g id="XMLID_851_">
									<g id="XMLID_852_">
										<path id="XMLID_68_" class="st3" d="M312.6,880.7c0,0,0.5-0.8,0.2-2.2c-0.1-0.7-0.4-1.5-1-2.2c-0.6-0.7-1.3-1.6-2.7-1.5
											c-0.7,0.1-1,1-0.9,1.5c0.1,0.5,0.4,1,0.6,1.4c0.5,0.8,1.1,1.4,1.6,1.8c1,0.9,1.8,1.2,1.9,1.2c0.1-0.1-0.7-0.5-1.6-1.5
											c-0.5-0.5-1-1.1-1.4-1.8c-0.5-0.6-0.8-1.8,0-2c0.8-0.1,1.6,0.6,2.1,1.2c0.5,0.6,0.8,1.4,1,2
											C312.8,879.8,312.5,880.6,312.6,880.7z"/>
									</g>
								</g>
							</g>
						</g>
					</g>
				</g>
				<g id="XMLID_853_">
					<g id="XMLID_854_">
						<g id="XMLID_855_">
							<g id="XMLID_856_">
								<g id="XMLID_857_">
									<g id="XMLID_858_">
										<path id="XMLID_63_" class="st3" d="M259.9,880.2c0,0.1,1.4-0.2,3.6-0.1c2.2,0.1,5.3,0.9,8,2.8c2.7,2,4.4,4.6,5.3,6.7
											c0.9,2,1,3.4,1.1,3.4c0,0,0-0.4-0.1-1c-0.1-0.6-0.3-1.5-0.7-2.6c-0.8-2.1-2.4-4.9-5.3-7c-2.9-2-6.1-2.7-8.3-2.7
											c-1.1,0-2,0.1-2.7,0.2C260.2,880,259.9,880.1,259.9,880.2z"/>
									</g>
								</g>
							</g>
						</g>
					</g>
				</g>
				<g id="XMLID_859_">
					<g id="XMLID_860_">
						<g id="XMLID_861_">
							<g id="XMLID_862_">
								<g id="XMLID_863_">
									<g id="XMLID_864_">
										
											<ellipse id="XMLID_62_" transform="matrix(-4.025895e-002 -0.9992 0.9992 -4.025895e-002 -594.0759 1168.7443)" class="st3" cx="264.3" cy="869.7" rx="10" ry="0.3"/>
									</g>
								</g>
							</g>
						</g>
					</g>
				</g>
				<g id="XMLID_865_">
					<g id="XMLID_866_">
						<g id="XMLID_867_">
							<g id="XMLID_868_">
								<g id="XMLID_869_">
									<g id="XMLID_870_">
										<path id="XMLID_61_" class="st3" d="M283.8,888.2c0,0.2,3.2,0.5,7.1,0.3c3.9-0.2,7.1-0.8,7.1-0.9c0-0.2-3.2,0.2-7.1,0.4
											C287,888.1,283.8,888,283.8,888.2z"/>
									</g>
								</g>
							</g>
						</g>
					</g>
				</g>
				<g id="XMLID_871_">
					<g id="XMLID_872_">
						<g id="XMLID_873_">
							<g id="XMLID_874_">
								<g id="XMLID_875_">
									<g id="XMLID_876_">
										<path id="XMLID_60_" class="st3" d="M274.3,888.7c-0.1,0.1,0.3,0.7,0.7,1.4c0.4,0.7,0.6,1.3,0.7,1.3
											c0.2,0,0.2-0.8-0.2-1.6C275,889,274.4,888.6,274.3,888.7z"/>
									</g>
								</g>
							</g>
						</g>
					</g>
				</g>
				<g id="XMLID_877_">
					<g id="XMLID_878_">
						<g id="XMLID_879_">
							<g id="XMLID_880_">
								<g id="XMLID_881_">
									<g id="XMLID_882_">
										
											<ellipse id="XMLID_59_" transform="matrix(-0.739 -0.6737 0.6737 -0.739 -124.4223 1722.395)" class="st3" cx="271.4" cy="885.3" rx="1.3" ry="0.3"/>
									</g>
								</g>
							</g>
						</g>
					</g>
				</g>
				<g id="XMLID_883_">
					<g id="XMLID_884_">
						<g id="XMLID_885_">
							<g id="XMLID_886_">
								<g id="XMLID_887_">
									<g id="XMLID_888_">
										<path id="XMLID_58_" class="st3" d="M265.2,882.7c0,0.2,0.7,0.1,1.4,0.3c0.7,0.2,1.3,0.6,1.4,0.4c0.1-0.1-0.3-0.8-1.2-1
											C265.9,882.2,265.2,882.5,265.2,882.7z"/>
									</g>
								</g>
							</g>
						</g>
					</g>
				</g>
				<g id="XMLID_889_">
					<g id="XMLID_890_">
						<g id="XMLID_891_">
							<g id="XMLID_892_">
								<g id="XMLID_893_">
									<g id="XMLID_894_">
										
											<ellipse id="XMLID_57_" transform="matrix(-0.9503 -0.3114 0.3114 -0.9503 236.7532 1802.0703)" class="st3" cx="262.3" cy="882.1" rx="0.8" ry="0.3"/>
									</g>
								</g>
							</g>
						</g>
					</g>
				</g>
			</g>
		</g>
		<g id="XMLID_895_">
			<g id="XMLID_896_">
				<g id="XMLID_897_">
					<g id="XMLID_898_">
						<g id="XMLID_899_">
							<g id="XMLID_900_">
								<g id="XMLID_901_">
									<g id="XMLID_902_">
										<path id="XMLID_54_" class="st5" d="M292.3,812.3l12.4-22.8L262.1,766l-18.5,33.2l2.5,1.6c11.4,7.1,58.4,35.5,67.6,37.4
											C324,840.4,292.3,812.3,292.3,812.3z"/>
									</g>
								</g>
							</g>
						</g>
					</g>
					<g id="XMLID_903_" class="st6">
						<g id="XMLID_904_">
							<g id="XMLID_905_">
								<g id="XMLID_906_">
									<g id="XMLID_907_">
										<path id="XMLID_53_" d="M259.3,807.3c1.4-3.9,1.2-8.3-0.4-12.1c-1.6-3.8-4.5-6.9-8.2-8.6l-6.6,11.9L259.3,807.3z"/>
									</g>
								</g>
							</g>
						</g>
					</g>
				</g>
				<g id="XMLID_908_">
					<g id="XMLID_909_">
						<g id="XMLID_910_" class="st6">
							<g id="XMLID_911_">
								<g id="XMLID_912_">
									<path id="XMLID_52_" d="M307.4,826.7c0,0,10.7,10.7,7.9,11.9c-2.7,1.2-51.3-25.6-71.7-39.4l0.6-0.9l56.4,31.8
										C300.7,830.1,304.9,825.4,307.4,826.7z"/>
								</g>
							</g>
						</g>
					</g>
				</g>
				<g id="XMLID_913_">
					<g id="XMLID_914_">
						<g id="XMLID_915_">
							<g id="XMLID_916_">
								<g id="XMLID_917_">
									<g id="XMLID_918_">
										<path id="XMLID_1374_" class="st3" d="M243.6,797.9c0,0,0.2,0.2,0.7,0.5c0.6,0.4,1.3,0.8,2,1.3c2.1,1.3,4.6,2.8,7.6,4.6
											c6.4,3.8,15.3,9,25.3,14.6c10,5.5,19.1,10.3,25.8,13.7c3.1,1.6,5.8,2.9,7.9,4c0.8,0.4,1.5,0.7,2.2,1
											c0.5,0.2,0.8,0.3,0.8,0.3c0,0-0.2-0.2-0.7-0.4c-0.6-0.3-1.3-0.7-2.1-1.1c-2.1-1.1-4.7-2.5-7.8-4.1
											c-6.6-3.5-15.7-8.3-25.7-13.9c-10-5.5-18.9-10.7-25.4-14.4c-3-1.8-5.6-3.2-7.6-4.4c-0.8-0.4-1.5-0.8-2.1-1.2
											C243.9,798,243.6,797.8,243.6,797.9z"/>
									</g>
								</g>
							</g>
						</g>
					</g>
				</g>
				<g id="XMLID_919_">
					<g id="XMLID_920_">
						<g id="XMLID_921_">
							<g id="XMLID_922_">
								<g id="XMLID_923_">
									<g id="XMLID_924_">
										<path id="XMLID_51_" class="st3" d="M300.3,830.7c0.1,0.1,1.3-1.7,3.5-2.9c2.2-1.3,4.3-1.3,4.3-1.5c0-0.1-2.2-0.4-4.6,1
											C301.1,828.6,300.1,830.7,300.3,830.7z"/>
									</g>
								</g>
							</g>
						</g>
					</g>
				</g>
				<g id="XMLID_925_">
					<g id="XMLID_926_">
						<g id="XMLID_927_">
							<g id="XMLID_928_">
								<g id="XMLID_929_">
									<g id="XMLID_930_">
										
											<ellipse id="XMLID_50_" transform="matrix(-0.8774 0.4798 -0.4798 -0.8774 942.3525 1391.6571)" class="st3" cx="293.3" cy="816.2" rx="2.4" ry="0.3"/>
									</g>
								</g>
							</g>
						</g>
					</g>
				</g>
				<g id="XMLID_931_">
					<g id="XMLID_932_">
						<g id="XMLID_933_">
							<g id="XMLID_934_">
								<g id="XMLID_935_">
									<g id="XMLID_936_">
										
											<ellipse id="XMLID_1353_" transform="matrix(-0.9743 0.2252 -0.2252 -0.9743 757.2137 1540.0656)" class="st3" cx="290.8" cy="813.2" rx="2" ry="0.3"/>
									</g>
								</g>
							</g>
						</g>
					</g>
				</g>
				<g id="XMLID_937_">
					<g id="XMLID_938_">
						<g id="XMLID_939_">
							<g id="XMLID_940_">
								<g id="XMLID_941_">
									<g id="XMLID_942_">
										
											<ellipse id="XMLID_1346_" transform="matrix(-0.8698 -0.4934 0.4934 -0.8698 144.6562 1657.583)" class="st3" cx="291.1" cy="809.7" rx="2.5" ry="0.3"/>
									</g>
								</g>
							</g>
						</g>
					</g>
				</g>
				<g id="XMLID_943_">
					<g id="XMLID_944_">
						<g id="XMLID_945_">
							<g id="XMLID_946_">
								<g id="XMLID_947_">
									<g id="XMLID_948_">
										<path id="XMLID_1339_" class="st3" d="M289.7,805.2c-0.1,0.1,0.7,1.2,2.1,2.1c1.4,0.9,2.7,1.2,2.7,1.1
											c0.1-0.2-1.1-0.7-2.4-1.6C290.7,805.9,289.8,805.1,289.7,805.2z"/>
									</g>
								</g>
							</g>
						</g>
					</g>
				</g>
				<g id="XMLID_949_">
					<g id="XMLID_950_">
						<g id="XMLID_951_">
							<g id="XMLID_952_">
								<g id="XMLID_953_">
									<g id="XMLID_954_">
										<path id="XMLID_1332_" class="st3" d="M294.7,814.5c0,0.1,0.9,0.8,2.7,1.5c0.9,0.4,2,0.7,3.3,1c0.6,0.1,1.3,0.3,2,0.2
											c0.4,0,0.8-0.1,1.1-0.5c0.3-0.3,0.4-0.9,0.2-1.3c-1.9-2.8-5.3-2.8-7-2c-0.9,0.4-1.5,0.9-1.9,1.3c-0.4,0.4-0.5,0.7-0.5,0.7
											c0.1,0.1,0.8-1,2.5-1.6c0.9-0.3,2-0.5,3.2-0.2c1.1,0.2,2.5,0.9,3.1,2c0.3,0.6-0.2,1-0.8,1c-0.6,0-1.3-0.1-1.9-0.2
											c-1.2-0.2-2.3-0.5-3.2-0.8C295.8,815,294.8,814.4,294.7,814.5z"/>
									</g>
								</g>
							</g>
						</g>
					</g>
				</g>
				<g id="XMLID_955_">
					<g id="XMLID_956_">
						<g id="XMLID_957_">
							<g id="XMLID_958_">
								<g id="XMLID_959_">
									<g id="XMLID_960_">
										<path id="XMLID_49_" class="st3" d="M295.4,815c0,0.1,0.8-0.4,1.4-1.7c0.3-0.6,0.4-1.5,0.4-2.4c-0.1-0.9-0.3-2.1-1.5-2.7
											c-0.7-0.3-1.4,0.3-1.5,0.8c-0.2,0.5-0.2,1-0.2,1.5c0,0.9,0.2,1.7,0.4,2.4c0.4,1.3,0.9,2,1,2c0.1,0-0.3-0.8-0.5-2.1
											c-0.1-0.6-0.2-1.4-0.2-2.3c-0.1-0.8,0.3-2,1-1.7c0.7,0.3,1,1.4,1.2,2.2c0.1,0.8,0,1.6-0.2,2.2
											C295.9,814.4,295.3,814.9,295.4,815z"/>
									</g>
								</g>
							</g>
						</g>
					</g>
				</g>
				<g id="XMLID_961_">
					<g id="XMLID_962_">
						<g id="XMLID_963_">
							<g id="XMLID_964_">
								<g id="XMLID_46_">
									<g id="XMLID_47_">
										<path id="XMLID_48_" class="st3" d="M250.9,786.7c0,0.1,1.3,0.6,3.1,1.8c1.8,1.3,4,3.5,5.3,6.6c1.3,3.1,1.3,6.3,0.9,8.4
											c-0.4,2.2-1,3.4-0.9,3.5c0,0,0.2-0.3,0.5-0.9c0.3-0.6,0.6-1.4,0.8-2.6c0.5-2.2,0.5-5.5-0.8-8.7c-1.3-3.2-3.7-5.5-5.6-6.7
											c-1-0.6-1.8-1-2.4-1.2C251.2,786.7,250.9,786.7,250.9,786.7z"/>
									</g>
								</g>
							</g>
						</g>
					</g>
				</g>
				<g id="XMLID_967_">
					<g id="XMLID_968_">
						<g id="XMLID_969_">
							<g id="XMLID_970_">
								<g id="XMLID_971_">
									<g id="XMLID_972_">
										
											<ellipse id="XMLID_45_" transform="matrix(0.4947 -0.8691 0.8691 0.4947 -546.501 620.248)" class="st3" cx="260.1" cy="780.1" rx="10" ry="0.3"/>
									</g>
								</g>
							</g>
						</g>
					</g>
				</g>
				<g id="XMLID_973_">
					<g id="XMLID_974_">
						<g id="XMLID_975_">
							<g id="XMLID_43_">
								<g id="XMLID_977_">
									<g id="XMLID_978_">
										<path id="XMLID_44_" class="st3" d="M266.9,806.2c-0.1,0.1,2.4,2.1,5.9,4.1c3.4,1.9,6.4,3.1,6.5,2.9
											c0.1-0.2-2.8-1.5-6.2-3.5C269.7,807.8,267,806,266.9,806.2z"/>
									</g>
								</g>
							</g>
						</g>
					</g>
				</g>
				<g id="XMLID_979_">
					<g id="XMLID_40_">
						<g id="XMLID_981_">
							<g id="XMLID_982_">
								<g id="XMLID_41_">
									<g id="XMLID_984_">
										<path id="XMLID_42_" class="st3" d="M258.6,801.5c-0.2,0-0.1,0.7-0.2,1.5c-0.1,0.8-0.2,1.4-0.1,1.5
											c0.1,0.1,0.6-0.6,0.7-1.5C259.1,802.2,258.7,801.5,258.6,801.5z"/>
									</g>
								</g>
							</g>
						</g>
					</g>
				</g>
				<g id="XMLID_985_">
					<g id="XMLID_986_">
						<g id="XMLID_987_">
							<g id="XMLID_988_">
								<g id="XMLID_989_">
									<g id="XMLID_990_">
										
											<ellipse id="XMLID_39_" transform="matrix(-0.2703 -0.9628 0.9628 -0.2703 -439.7881 1260.9449)" class="st3" cx="257.9" cy="797.1" rx="1.3" ry="0.3"/>
									</g>
								</g>
							</g>
						</g>
					</g>
				</g>
				<g id="XMLID_991_">
					<g id="XMLID_992_">
						<g id="XMLID_993_">
							<g id="XMLID_994_">
								<g id="XMLID_995_">
									<g id="XMLID_996_">
										<path id="XMLID_38_" class="st3" d="M254.1,791.6c0,0.2,0.5,0.5,1,1c0.5,0.6,0.8,1.1,0.9,1.1c0.2,0,0.1-0.8-0.5-1.5
											C254.9,791.6,254.1,791.5,254.1,791.6z"/>
									</g>
								</g>
							</g>
						</g>
					</g>
				</g>
				<g id="XMLID_997_">
					<g id="XMLID_998_">
						<g id="XMLID_999_">
							<g id="XMLID_1000_">
								<g id="XMLID_36_">
									<g id="XMLID_1002_">
										
											<ellipse id="XMLID_37_" transform="matrix(-0.6415 -0.7672 0.7672 -0.6415 -192.3454 1489.3004)" class="st3" cx="251.9" cy="789.6" rx="0.8" ry="0.3"/>
									</g>
								</g>
							</g>
						</g>
					</g>
				</g>
			</g>
		</g>
		<g id="XMLID_1003_">
			<path id="XMLID_35_" class="st3" d="M247.3,880.5l64.4-9.1l-58.8-261.7l-40.5-254.9l-107.3,0.6l-15.5,74.5
				c-4.3,20.9-1.4,42.6,8.5,61.7l57.5,111.2C155.4,609.7,247.3,880.5,247.3,880.5z"/>
			<path id="XMLID_34_" class="st3" d="M212.4,354.8l140.1,185.4c19.6,27.1,24.2,62.3,12.2,93.6l-63.4,165.1l-59.2-30.7l51.6-160.8
				l-101.2-91.3l-15-161.4H212.4z"/>
			<g id="XMLID_1004_">
				<path id="XMLID_1005_" class="st2" d="M297.7,805.6c0,0-0.1-0.4-0.4-1.1c-0.2-0.8-0.5-1.9-0.9-3.4c-0.8-3-1.9-7.4-3.3-13.1
					c-2.8-11.4-6.8-27.8-11.8-48.1c-9.8-40.7-23.1-96.9-37.5-159.1c-7.1-31.1-13.9-60.8-20-87.7c-3-13.5-5.9-26.3-8.5-38.3
					c-2.5-12-4.8-23.3-6.9-33.5c-4.2-20.5-7.5-37-9.9-48.5c-1.1-5.7-2-10.1-2.6-13.2c-0.3-1.5-0.5-2.6-0.6-3.4
					c-0.1-0.8-0.2-1.2-0.2-1.2s0.1,0.4,0.3,1.2c0.2,0.8,0.4,2,0.8,3.4c0.7,3.1,1.6,7.5,2.9,13.2c2.4,11.5,5.9,28,10.3,48.4
					c2.2,10.2,4.5,21.4,7,33.5c2.7,12,5.6,24.8,8.7,38.3c6.2,27,13,56.6,20.1,87.7C274,704.2,296,798.5,297.7,805.6z"/>
			</g>
			<g id="XMLID_1006_">
				<path id="XMLID_1007_" class="st2" d="M310.9,592.8c0.2,0.3-4,3.4-8.6,7.7c-4.7,4.3-8,8.3-8.3,8.1c-0.3-0.2,2.7-4.6,7.4-9
					C306.2,595.1,310.7,592.5,310.9,592.8z"/>
			</g>
			<g id="XMLID_33_">
				
					<ellipse id="XMLID_1009_" transform="matrix(0.9932 -0.1168 0.1168 0.9932 -68.8073 39.6694)" class="st2" cx="303.9" cy="606.7" rx="12.4" ry="0.7"/>
			</g>
			<g id="XMLID_1010_">
				<path id="XMLID_32_" class="st2" d="M151.3,370.8c0.1,0,0.2,0.7,0.3,2c0.1,1.3,0,3.2-0.6,5.4c-1,4.4-4.2,10.6-10.5,14.2
					c-6.3,3.6-13.2,3.3-17.5,2c-2.2-0.7-3.9-1.5-5-2.2c-1.1-0.7-1.6-1.2-1.6-1.2c0.1-0.2,2.4,1.5,6.7,2.6c4.2,1.1,10.8,1.1,16.6-2.2
					c5.8-3.4,9-9.1,10.2-13.3C151.4,373.6,151,370.8,151.3,370.8z"/>
			</g>
		</g>
		<g id="XMLID_1205_">
			<path id="XMLID_1013_" class="st7" d="M209.9,167.2c0,0,22.6,6.5,30.9,33.8c8.3,27.3,18.2,55.4,18.2,55.4l-36.2,9.7L209.9,167.2z
				"/>
			<g id="XMLID_1014_">
				<g id="XMLID_1015_">
					<path id="XMLID_31_" class="st7" d="M230.8,229.1c1.7,6.6,3.6,13.3,3.7,20.1c0.1,11-4.7,21.6-11.6,30.1
						c-0.1,0.1-0.1,0.1-0.2,0.2l-10.3,75.3l-107.3,0.6l-0.8-32L96.9,260l-7.2,20.3l-52-33.8l10.7-25.4c4.4-10.9,10.6-23.8,17.6-32.3
						c9.9-12,23.8-19.8,38.9-23.2c10.9-2.4,21.4-3.8,21.4-3.8l47.4,0.5c10.8-0.1,36.5,4.7,36.5,4.7L230.8,229.1"/>
				</g>
				<g id="XMLID_1016_">
					<g id="XMLID_29_">
						<path id="XMLID_30_" class="st8" d="M218,288c0.1,0.1,0.9-0.7,2.1-2.2c1.3-1.5,3-3.7,4.8-6.7c3.7-5.9,7.6-15.1,8.5-25.9
							c0.9-10.8-1.3-20.5-3.9-27c-1.3-3.3-2.6-5.8-3.6-7.5c-1-1.7-1.7-2.5-1.7-2.5c-0.2,0.1,2.1,3.8,4.4,10.3
							c2.3,6.5,4.3,16,3.4,26.5c-0.9,10.5-4.5,19.5-7.9,25.5C220.7,284.6,217.8,287.8,218,288z"/>
					</g>
				</g>
				<g id="XMLID_1018_">
					<g id="XMLID_1019_">
						<path id="XMLID_28_" class="st8" d="M127.5,292.1c0,0.1,0.8,0.3,2.2,0.5c1.4,0.2,3.5,0.4,6.1,0.3c5.2-0.1,12.4-1.5,19.4-5.5
							c6.9-4,11.8-9.5,14.6-13.9c1.4-2.2,2.3-4.1,2.8-5.4c0.5-1.3,0.7-2.1,0.7-2.2c-0.2-0.1-1.5,2.8-4.4,7
							c-2.9,4.1-7.7,9.4-14.4,13.2c-6.7,3.8-13.7,5.4-18.7,5.8C130.7,292.3,127.5,291.9,127.5,292.1z"/>
					</g>
				</g>
				<g id="XMLID_1020_">
					<g id="XMLID_1021_">
						<path id="XMLID_27_" class="st8" d="M91,170.6c0,0.2,1.4,0.1,3.9,0.8c2.5,0.6,6,2,9.5,5c3.5,2.9,6.9,7.4,8.9,13.1
							c2,5.7,2.3,12.5,1.2,19.4c-1.1,6.9-3.4,13.3-5.8,18.9c-2.4,5.6-4.9,10.6-6.9,14.8c-2,4.2-3.4,7.7-4.3,10.2
							c-0.9,2.5-1.3,3.8-1.2,3.9c0.1,0,0.7-1.3,1.7-3.7c1.1-2.4,2.7-5.8,4.8-9.9c2.1-4.2,4.7-9.1,7.2-14.7
							c2.5-5.6,4.9-12.1,6.1-19.2c1.1-7.1,0.8-14.2-1.4-20.1c-2.2-5.9-5.8-10.5-9.6-13.4c-3.7-2.9-7.5-4.3-10.1-4.7
							c-1.3-0.2-2.3-0.3-3-0.3C91.3,170.5,91,170.6,91,170.6z"/>
					</g>
				</g>
			</g>
		</g>
		<g id="XMLID_1113_">
			<path id="XMLID_1114_" class="st0" d="M201.8,284.2l-16.1-15.6c-4.2-3-9.5-4.1-14.6-3.1c-4.8,0.9-9,3.7-11.8,7.7l-18,25.5
				l-78.7,17.9c0,0,15.4-42.2,15.6-43.5l9.1,5.9l-1.4-0.9c0,0,0-0.1,0,0l-43.1-28L28.4,293c0,0-24.6,64,14.1,64.2
				c37.7,0.2,119.5-31.5,119.5-31.5l-0.1-0.1l10.5-7.8l5.1-4.4c3.6-3.1,5.8-7.4,6.3-12.1l1.9-17.9c0,0,9.6,5.1,14.2,7.3
				c2.4,1.2,3.3-0.1,3.6-1.6C203.9,287.3,203.2,285.5,201.8,284.2z"/>
			<g id="XMLID_1115_">
				<g id="XMLID_1116_">
					<g id="XMLID_1117_">
						<g id="XMLID_1118_">
							<g id="XMLID_1119_">
								<path id="XMLID_1134_" class="st1" d="M185.9,284.7c0.1-0.1-0.2-0.9-1-2c-0.8-1.1-2.2-2.7-4.3-3.5c-2.2-0.8-4.4,0-5.5,1.1
									c-1.1,1.1-1.1,2.1-1,2.1c0.2,0.1,0.4-0.8,1.4-1.6c1-0.7,2.9-1.3,4.7-0.6c1.9,0.6,3.2,2,4.1,3
									C185.2,284.1,185.7,284.8,185.9,284.7z"/>
							</g>
						</g>
					</g>
					<g id="XMLID_1120_">
						<g id="XMLID_1121_">
							<g id="XMLID_1122_">
								<path id="XMLID_1130_" class="st1" d="M173.6,291.4c0.1,0.1,0.6-0.4,1.6-0.9c0.9-0.5,2.3-1.1,3.9-1.1c1.6,0,3,0.6,3.9,1.1
									c0.9,0.5,1.4,1,1.6,0.9c0.1-0.1-0.2-0.7-1.2-1.5c-0.9-0.7-2.5-1.5-4.3-1.5c-1.9,0-3.4,0.7-4.3,1.5
									C173.8,290.7,173.5,291.4,173.6,291.4z"/>
							</g>
						</g>
					</g>
				</g>
			</g>
		</g>
	</g>
	<g id="XMLID_148_">
		<path id="XMLID_1154_" class="st9" d="M139.7,21.3c11.4-11.6,29.4-18.4,44.2-11.9c10,4.4,16.8,13.8,25.6,20.3
			c6.4,4.7,14.3,8.4,17.7,15.6c3,6.4,1.5,13.8,0.8,20.7c-0.7,7-0.2,15,5.2,19.5c2.8,2.3,6.6,3.3,9.8,5.1
			c6.4,3.7,10.3,10.9,11.6,18.1c1.4,7.3,0.6,14.8-0.1,22.2l-30.7,5.8l-5-8.5l-1.8,13.3l-39.1,3.5L139.7,21.3z"/>
		<g id="XMLID_172_">
			<g id="XMLID_173_">
				<g id="XMLID_174_">
					<g id="XMLID_187_">
						<g id="XMLID_188_">
							<g id="XMLID_189_">
								<g id="XMLID_1147_">
									<g id="XMLID_1148_">
										<g id="XMLID_1149_">
											<g id="XMLID_1150_">
												<g id="XMLID_1152_">
													<path id="XMLID_1153_" class="st0" d="M134.6,34l-0.1,8.5l-2.4,127.9c-0.2,14.8,14,27.5,29.9,27.6l0,0
														c16,0.1,22.6-11.9,23-26.9c0.5-15.7,1.3-32.3,1.3-32.3s20.3-2.8,25.3-29.1c2.4-13.1,2.4-34.6,1.8-52.3
														c-0.6-15.9-14.2-28.1-30.1-26.9L134.6,34z"/>
												</g>
											</g>
										</g>
									</g>
								</g>
								<g id="XMLID_1128_">
									<g id="XMLID_1138_">
										<g id="XMLID_1140_">
											<g id="XMLID_1141_">
												<g id="XMLID_1143_">
													<g id="XMLID_1145_">
														<path id="XMLID_1146_" class="st3" d="M206.4,74.4c0,1.8-1.5,3.3-3.4,3.3c-1.9,0-3.4-1.4-3.4-3.2
															c0-1.8,1.5-3.3,3.4-3.3C204.8,71.2,206.4,72.6,206.4,74.4z"/>
													</g>
												</g>
											</g>
										</g>
									</g>
									<g id="XMLID_1129_">
										<g id="XMLID_1131_">
											<g id="XMLID_1132_">
												<g id="XMLID_1133_">
													<g id="XMLID_1135_">
														<g id="XMLID_1136_">
															<path id="XMLID_1137_" class="st3" d="M208.4,68.5c-0.4,0.4-2.9-1.5-6.6-1.6c-3.6-0.1-6.4,1.7-6.8,1.2
																c-0.2-0.2,0.3-1,1.4-1.8c1.2-0.8,3.1-1.6,5.4-1.5c2.3,0.1,4.2,1,5.2,1.9C208.2,67.5,208.6,68.3,208.4,68.5z"/>
														</g>
													</g>
												</g>
											</g>
										</g>
									</g>
								</g>
								<g id="XMLID_217_">
									<g id="XMLID_225_">
										<g id="XMLID_226_">
											<g id="XMLID_1124_">
												<g id="XMLID_1125_">
													<g id="XMLID_1126_">
														<path id="XMLID_1127_" class="st3" d="M170.5,74.4c0,1.8-1.5,3.3-3.4,3.3c-1.9,0-3.4-1.4-3.4-3.2
															c0-1.8,1.5-3.3,3.4-3.3C168.9,71.2,170.5,72.6,170.5,74.4z"/>
													</g>
												</g>
											</g>
										</g>
									</g>
									<g id="XMLID_218_">
										<g id="XMLID_219_">
											<g id="XMLID_220_">
												<g id="XMLID_221_">
													<g id="XMLID_222_">
														<g id="XMLID_223_">
															<path id="XMLID_224_" class="st3" d="M172.5,68.2c-0.4,0.4-3-1.5-6.6-1.6c-3.6-0.1-6.4,1.7-6.8,1.2
																c-0.2-0.2,0.3-1,1.5-1.8c1.2-0.8,3.1-1.6,5.4-1.5c2.3,0.1,4.2,1,5.2,1.8C172.4,67.2,172.7,68,172.5,68.2z"/>
														</g>
													</g>
												</g>
											</g>
										</g>
									</g>
								</g>
								<g id="XMLID_210_">
									<g id="XMLID_211_">
										<g id="XMLID_212_">
											<g id="XMLID_213_">
												<g id="XMLID_214_">
													<g id="XMLID_215_">
														<path id="XMLID_216_" class="st3" d="M185,95.6c0-0.2,2.3-0.5,6-0.9c0.9-0.1,1.8-0.2,2-0.9c0.2-0.7-0.1-1.7-0.5-2.8
															c-0.8-2.3-1.7-4.7-2.6-7.2c-3.5-10.2-6.1-18.6-5.7-18.7c0.4-0.1,3.6,8,7.2,18.2c0.9,2.5,1.7,4.9,2.4,7.2
															c0.3,1.1,0.9,2.3,0.4,3.7c-0.3,0.7-1,1.2-1.6,1.3c-0.6,0.2-1.1,0.2-1.6,0.2C187.3,95.9,185,95.8,185,95.6z"/>
													</g>
												</g>
											</g>
										</g>
									</g>
								</g>
								<g id="XMLID_203_">
									<g id="XMLID_204_">
										<g id="XMLID_205_">
											<g id="XMLID_207_">
												<g id="XMLID_208_">
													<path id="XMLID_209_" class="st1" d="M186.3,138.8c0,0-17.8,0.7-35.1-10.4c0,0,8.1,18.4,34.6,16.6L186.3,138.8z"/>
												</g>
											</g>
										</g>
									</g>
								</g>
								<g id="XMLID_197_">
									<g id="XMLID_198_">
										<g id="XMLID_199_">
											<g id="XMLID_200_">
												<g id="XMLID_201_">
													<path id="XMLID_202_" class="st10" d="M183.2,104.4c-1.3-1.8-3.5-2.8-5.8-2.6c-1.6,0.1-3.2,0.8-4.2,2.1
														c-1,1.3-1.2,3.1-0.4,4.3c0.9,1.4,3,1.8,4.7,1.3c1.8-0.4,3.3-1.6,4.7-2.7c0.4-0.3,0.8-0.6,1.1-1c0.3-0.4,0.3-1,0-1.4"/>
												</g>
											</g>
										</g>
									</g>
								</g>
								<g id="XMLID_190_">
									<g id="XMLID_191_">
										<g id="XMLID_192_">
											<g id="XMLID_193_">
												<g id="XMLID_194_">
													<g id="XMLID_195_">
														<path id="XMLID_196_" class="st3" d="M174.2,97.8c0.6,0,0.5,3.9,3.8,6.8c3.3,2.9,7.5,2.6,7.6,3.1c0,0.2-1,0.7-2.7,0.7
															c-1.7,0-4.3-0.6-6.3-2.4c-2-1.8-2.8-4.1-2.9-5.7C173.5,98.8,173.9,97.8,174.2,97.8z"/>
													</g>
												</g>
											</g>
										</g>
									</g>
								</g>
							</g>
						</g>
					</g>
					<g id="XMLID_181_">
						<g id="XMLID_182_">
							<g id="XMLID_183_">
								<g id="XMLID_184_">
									<g id="XMLID_185_">
										<path id="XMLID_186_" class="st3" d="M173.7,57.6c-0.4,1-4,0.4-8.3,0.8c-4.3,0.3-7.8,1.5-8.3,0.6
											c-0.2-0.4,0.4-1.3,1.8-2.3c1.4-0.9,3.6-1.8,6.2-2c2.6-0.2,4.9,0.3,6.5,0.9C173.1,56.3,173.8,57.1,173.7,57.6z"/>
									</g>
								</g>
							</g>
						</g>
					</g>
					<g id="XMLID_175_">
						<g id="XMLID_176_">
							<g id="XMLID_177_">
								<g id="XMLID_178_">
									<g id="XMLID_179_">
										<path id="XMLID_180_" class="st3" d="M208.5,61.2c-0.8,0.8-3.8-0.1-7.5-0.3c-3.7-0.2-6.8,0.4-7.5-0.5
											c-0.3-0.4,0.2-1.2,1.6-2c1.4-0.7,3.6-1.3,6.1-1.2c2.5,0.1,4.7,0.9,5.9,1.8C208.5,59.9,208.9,60.8,208.5,61.2z"/>
									</g>
								</g>
							</g>
						</g>
					</g>
				</g>
			</g>
		</g>
		<path id="XMLID_171_" class="st9" d="M153.5,18.4c4.8,6.4,7.1,11.4,9.9,22.8c1.4,5.6-3.1,9.5-7.7,13c-2.1,1.6-5.2,0.5-5.8-2.1l0,0
			c0,0,1.6,17.5-4.8,25.4c-3,3.7-3.1,8.4-2.4,12.4c0.7,4.1,2.8,7.7,5.7,10.7c7.3,7.7,9.4,20.3,4.3,29.8c-1.3,2.4-3,4.6-4,7.2
			c-0.6,1.5-0.9,3.1-0.8,4.6c0.1,1.9-1.2,3.6-3.1,3.9c-21.7,3.2-43.8,3.8-65.7,2c-1.5-0.1-2.9-1.2-3.2-2.7
			c-1.7-7.3,1.1-15.2,4.8-21.8c4.1-7.5,9.3-14.6,10.7-23c1.3-7.9-0.8-16.4,2.3-23.8c3.9-9,14.5-13.3,19.8-21.6
			c5-7.8,4.6-18.1,9.1-26.2C128.4,18.4,142.6,13.6,153.5,18.4"/>
		<path id="XMLID_170_" class="st9" d="M154.7,28.1c8.3,4.3,12.1,14.4,20.2,19.1c7.4,4.3,16.5,3.2,24.9,1.9
			c-0.3-1.9-0.6-3.7-0.9-5.6c0.9,1.6,1.7,3.3,3.1,4.5c1.4,1.2,3.4,1.9,5.1,1.2c2.8-1.1,3.2-5,2.5-8c-1.2-4.7-3.9-9-7.3-12.4
			c-6.2-6.3-14.7-10.3-23.6-11c-8.8-0.7-17.9,1.9-25,7.1"/>
		<g id="XMLID_167_">
			<path id="XMLID_168_" class="st11" d="M113.4,49.9c0.1-0.1,1.6,1.2,4.4,2.7c1.4,0.8,3.1,1.5,5.1,2.2c2,0.6,4.2,1.2,6.6,1.5
				c2.4,0.3,4.7,0.2,6.8,0.1c2.1-0.2,3.9-0.6,5.4-1c3-0.9,4.8-1.8,4.9-1.6c0,0-0.4,0.3-1.2,0.7c-0.4,0.2-0.9,0.5-1.5,0.7
				c-0.6,0.2-1.3,0.5-2,0.7c-1.5,0.5-3.4,0.9-5.5,1.2c-2.1,0.2-4.5,0.3-6.9,0c-2.4-0.3-4.7-0.9-6.7-1.6c-2-0.7-3.7-1.5-5.1-2.4
				c-0.7-0.4-1.3-0.8-1.8-1.2c-0.5-0.4-1-0.7-1.3-1C113.8,50.3,113.4,49.9,113.4,49.9z"/>
		</g>
		<g id="XMLID_165_">
			<path id="XMLID_166_" class="st11" d="M147.6,65.1c0,0-0.5,0.2-1.4,0.4s-2.3,0.5-4,0.8c-3.4,0.6-8.3,1.2-13.5,0.1
				c-5.3-1.1-9.5-4-11.7-6.7c-1.1-1.3-1.8-2.6-2.2-3.5c-0.4-0.9-0.5-1.4-0.5-1.4c0.1-0.1,0.8,2.1,3.1,4.6c2.2,2.5,6.4,5.3,11.5,6.3
				c5.1,1,9.9,0.6,13.3,0.1c1.7-0.2,3.1-0.5,4-0.6C147,65.1,147.6,65,147.6,65.1z"/>
		</g>
		<g id="XMLID_163_">
			<path id="XMLID_164_" class="st11" d="M100.5,146c0,0-0.1-0.1-0.2-0.2c-0.1-0.1-0.3-0.3-0.4-0.6c-0.4-0.5-0.8-1.4-1.1-2.6
				c-0.5-2.4,0-6.3,2.9-9.8c1.4-1.7,3.4-3.2,5.5-4.7c2.2-1.4,4.6-2.7,7-4.4c2.4-1.6,4.7-3.6,6.4-6.2c0.8-1.3,1.4-2.8,1.6-4.4
				c0.2-1.6,0.1-3.2-0.3-4.8c-0.7-3.2-2.2-6.2-3.3-9.1c-1.2-2.9-2.2-5.9-2.2-8.9c-0.2-5.9,2-11.1,4.5-14.6c2.6-3.6,5.6-5.7,7.8-6.9
				c0.5-0.3,1-0.5,1.5-0.7c0.4-0.2,0.8-0.3,1.1-0.4c0.6-0.2,0.9-0.3,0.9-0.3c0,0-0.3,0.2-0.9,0.4c-0.3,0.1-0.7,0.3-1.1,0.5
				c-0.4,0.2-0.9,0.5-1.4,0.8c-2.1,1.2-5,3.3-7.5,6.9c-2.5,3.5-4.6,8.6-4.3,14.3c0.1,2.9,1,5.8,2.2,8.7c1.2,2.9,2.6,5.9,3.4,9.2
				c0.4,1.7,0.5,3.4,0.3,5c-0.2,1.7-0.8,3.2-1.7,4.6c-1.7,2.8-4.2,4.8-6.6,6.4c-2.4,1.6-4.9,2.9-7,4.3c-2.2,1.4-4.1,2.9-5.5,4.5
				c-2.8,3.3-3.4,7.1-3,9.5C99.5,144.9,100.6,145.9,100.5,146z"/>
		</g>
		<g id="XMLID_161_">
			<path id="XMLID_162_" class="st11" d="M135.7,146.5c0,0-0.3-0.1-0.8-0.4c-0.5-0.3-1.1-0.9-1.7-1.9c-0.6-0.9-1-2.2-1.2-3.8
				c-0.1-1.6,0-3.4,0.6-5.3c1.1-3.9,4.3-7.4,6.7-11.8c1.2-2.2,2.1-4.8,2-7.5c0-2.7-0.9-5.5-2.1-8.2c-2.5-5.3-6.4-9.5-9-14
				c-1.3-2.2-2.5-4.4-3.1-6.6c-0.7-2.2-0.8-4.4-0.6-6.4c0.4-4,2.2-6.8,3.8-8.3c0.8-0.7,1.6-1.1,2.1-1.4c0.5-0.2,0.8-0.3,0.8-0.3
				c0,0.1-1.2,0.4-2.8,1.9c-1.5,1.4-3.2,4.3-3.5,8.1c-0.1,1.9,0,4,0.7,6.2c0.7,2.2,1.8,4.3,3.1,6.5c1.4,2.2,3,4.3,4.6,6.6
				c1.6,2.3,3.3,4.7,4.5,7.4c1.3,2.7,2.1,5.6,2.2,8.4c0.1,2.9-0.8,5.6-2.1,7.8c-2.5,4.5-5.8,8-6.8,11.7c-0.6,1.8-0.8,3.6-0.7,5.1
				c0.1,1.5,0.5,2.8,1,3.7C134.5,145.9,135.8,146.4,135.7,146.5z"/>
		</g>
		<g id="XMLID_159_">
			<path id="XMLID_160_" class="st11" d="M187.9,47.3c0,0-0.2-0.1-0.5-0.2c-0.3-0.2-0.8-0.4-1.3-0.8c-1.1-0.8-2.5-2.2-3.8-4.2
				c-1.3-2-2.5-4.7-3.7-7.6c-0.6-1.5-1.3-3-2.1-4.5c-0.8-1.5-1.8-3-2.9-4.4c-4.6-5.6-10.7-8.7-15.3-9.8c-4.6-1.2-7.6-0.9-7.6-1.1
				c0,0,0.7-0.1,2.1-0.1c1.3,0.1,3.3,0.2,5.6,0.7c2.3,0.6,5.1,1.5,7.8,3.2c2.7,1.6,5.6,3.8,7.9,6.7c1.2,1.4,2.1,3,3,4.5
				c0.8,1.5,1.5,3.1,2,4.5c1.2,2.9,2.2,5.6,3.5,7.6c1.2,2,2.5,3.4,3.6,4.3C187.2,46.8,187.9,47.2,187.9,47.3z"/>
		</g>
		<g id="XMLID_157_">
			<path id="XMLID_158_" class="st11" d="M206.3,47.1c0,0-0.2,0-0.7-0.1c-0.5-0.1-1.1-0.2-2-0.5c-1.7-0.6-4-1.8-6.3-4.1
				c-2.3-2.2-4.5-5.4-6.5-9c-2.1-3.6-4.1-7.8-7.2-11.4c-3.1-3.7-7.3-5.9-11.2-7c-4-1.1-7.8-1.4-10.9-1.5c-3.2-0.1-5.7,0.1-7.5,0.1
				c-0.8,0-1.5,0.1-2,0.1c-0.5,0-0.7,0-0.7,0c0,0,0.2-0.1,0.7-0.1c0.5-0.1,1.1-0.1,2-0.2c1.8-0.2,4.3-0.4,7.5-0.4
				c3.2,0,7,0.2,11.1,1.3c4.1,1.1,8.4,3.4,11.6,7.2c3.2,3.7,5.2,8,7.2,11.6c2,3.7,4.1,6.8,6.3,9c2.2,2.3,4.4,3.5,6.1,4.2
				C205.3,46.9,206.3,47.1,206.3,47.1z"/>
		</g>
		<g id="XMLID_155_">
			<path id="XMLID_156_" class="st11" d="M237.5,132.9c-0.1,0,0.3-0.9,0.8-2.7c0.4-1.7,0.9-4.3,0.8-7.5c-0.1-3.2-0.9-7-2.8-10.7
				c-1-1.9-2.2-3.7-3.8-5.3c-1.5-1.7-3.3-3.3-5.1-5c-1.8-1.7-3.5-3.4-4.9-5.3c-1.4-1.8-2.6-3.8-3.5-5.7c-0.9-1.9-1.6-3.8-2.1-5.7
				c-0.5-1.8-0.8-3.6-1-5.2c-0.4-3.2-0.2-5.8,0.1-7.6c0.1-0.9,0.3-1.6,0.4-2c0.1-0.5,0.2-0.7,0.2-0.7c0.1,0-0.1,1-0.3,2.8
				c-0.2,1.8-0.3,4.4,0.1,7.5c0.2,1.6,0.5,3.3,1.1,5.1c0.5,1.8,1.2,3.7,2.2,5.6c0.9,1.9,2.1,3.8,3.5,5.6c1.4,1.8,3.1,3.5,4.8,5.2
				c1.8,1.7,3.5,3.3,5.1,5.1c1.6,1.7,2.9,3.6,3.8,5.5c2,3.8,2.7,7.7,2.7,11c0.1,3.2-0.5,5.8-1,7.6c-0.3,0.9-0.5,1.5-0.7,1.9
				C237.6,132.7,237.5,132.9,237.5,132.9z"/>
		</g>
	</g>
</g>
</svg>
