<?xml version="1.0" encoding="utf-8"?>
<!-- Generator: Adobe Illustrator 19.0.0, SVG Export Plug-In . SVG Version: 6.00 Build 0)  -->
<svg version="1.1" id="Warstwa_1" xmlns="http://www.w3.org/2000/svg" xmlns:xlink="http://www.w3.org/1999/xlink" x="0px" y="0px"
	 viewBox="0 0 800 800" style="enable-background:new 0 0 800 800;" xml:space="preserve">
<style type="text/css">
	.st0{fill:#1c1d21;}
</style>
<g id="XMLID_13_">
	<g id="XMLID_37_">
		<g id="XMLID_38_">
			<path id="XMLID_8_" class="st0" d="M277.7,245.3c0,0,9.8,4.3,28.1,12.6c4.6,2.1,9.7,4.4,15.3,7c5.6,2.6,11.7,5.4,18.3,8.5
				c6.6,3.1,13.7,6.4,21.2,9.9c7.5,3.6,15.5,7.3,24,11.3c33.8,16,74.7,35.8,121.4,58.7c11.7,5.7,23.7,11.7,36.1,17.9
				c1.5,0.8,3.1,1.5,4.7,2.3l1.2,0.6c-0.5-0.3,1.3,0.7,1.3,0.8l0.6,0.3l1.2,0.6c0.1,0,0.5,0.3,0.9,0.6l1.2,0.8
				c0.8,0.5,1.6,1,2.3,1.6c0.7,0.5,1.3,0.9,1.9,1.4c1.2,0.9,2.4,2,3.6,3c2.4,2.1,4.5,4.5,6.6,7c4,5,7.3,10.8,9.6,16.8
				c2.3,6.1,3.7,12.6,4,19.2c0.4,6.6-0.3,13.3-2.1,19.9c-1.7,6.6-4.7,13-8.6,18.9c-3.9,5.9-8.9,11.1-14.5,15.4
				c-1.4,1.1-2.8,2.1-4.3,3l-2.9,1.9c-1.6,1-3.2,2.1-4.8,3.1c-12.8,8.4-26,16.9-39.4,25.7c-53.7,34.9-112.1,72.1-174.1,111.2
				c-31,19.5-62.9,39.5-95.6,59.7c-16.3,10.2-32.9,20.3-49.6,30.6c-4.2,2.6-8.4,5.1-12.6,7.7l-1.6,1c1.1-0.6-2.4,1.3-2.3,1.3
				l-0.8,0.5l-0.8,0.5c0,0-1.1,0.6-1.9,1c-1.7,0.8-3.5,1.6-5.2,2.4c-5.5,2.3-11.3,4-17.3,5.1c-12,2.2-24.5,1.7-36.2-1.4
				c-11.7-3.1-22.6-8.6-32-16.2c-4.7-3.8-9.1-8.2-12.9-13c-3.9-4.8-7.2-10.1-9.9-15.7c-5.6-11.2-8.4-23.8-8.6-35.8
				c-0.2-10.2-0.4-20.5-0.7-30.8c-0.4-20.3-0.9-40.7-1.2-61.3c-0.3-20.6-0.7-41.2-1-62c-0.3-20.8-0.5-41.7-0.8-62.6
				c-0.9-83.9-1.4-169.1-1.3-254.3c0-10.7,0-21.3,0.1-32l0-16l0-8.9l0-1l0.1-2.5c0-0.9,0.1-1.9,0.2-2.6l0.2-2.2
				c0.3-2.9,0.7-5.8,1.2-8.7c2.1-11.5,6.3-22.9,12.3-33.1c6-10.2,13.7-19.3,22.7-26.7c8.9-7.4,19-13.3,29.9-17.3
				c10.8-4.1,22.5-6.3,34.3-6.4c11.8-0.2,23.7,1.8,34.6,5.7c5.5,1.9,10.8,4.3,15.7,7l1.8,1l1,0.6l1.7,1l3.4,2
				c9.1,5.4,18.2,10.8,27.3,16.1s18.2,10.7,27.2,16.1c9,5.4,18.1,10.7,27.1,16.1c72.1,42.9,142.8,85.4,211,127.2
				c68.2,41.7,133.8,82.5,195.8,121.6c3.9,2.4,7.7,4.9,11.6,7.3c1.9,1.2,3.8,2.4,5.8,3.6l3.5,2.2l1.9,1.3c1,0.7,2.2,1.5,3,2.1
				c6.8,4.9,13,10.9,18.2,17.6c5.2,6.7,9.3,14.2,12.2,22c5.9,15.6,7,32.3,3.7,48c-1.6,7.8-4.4,15.4-8.1,22.5
				c-3.7,7.1-8.5,13.6-14,19.2c-5.5,5.6-11.8,10.4-18.3,14.1l-1.2,0.7c-0.7,0.4,1.6-1,0.3-0.2l-1.4,0.8l-2.8,1.6
				c-1.9,1-3.7,2.1-5.6,3.1c-7.4,4.2-14.7,8.3-22,12.3c-14.5,8.2-28.8,16.1-42.8,23.8c-14,7.8-27.7,15.4-41.1,22.8
				c-3.3,1.9-6.7,3.7-10,5.5c-3.3,1.8-6.6,3.6-9.9,5.4c-6.6,3.6-13.1,7.1-19.5,10.6c-12.8,7-25.3,13.8-37.4,20.4
				c-12.2,6.5-24,12.9-35.5,19.1c-11.5,6.2-22.7,12.1-33.4,17.9c-10.7,5.7-21.1,11.2-31,16.4c-10,5.3-19.5,10.4-28.6,15.1
				c-9.2,4.8-17.9,9.3-26.2,13.7c-16.5,8.7-31.4,16.3-44.3,22.9c-12.9,6.7-24,12.2-32.9,16.8c-17.9,9-27.5,13.7-27.5,13.7l-3.3-5.3
				c0,0,36.1-22.6,99.3-62.1c15.8-9.9,33.3-20.8,52.4-32.7c9.5-5.9,19.5-12.1,29.7-18.6c10.2-6.5,20.8-13.2,31.8-20.2
				c43.9-27.8,93.3-59.2,147.3-93.4c13.5-8.5,27.3-17.3,41.3-26.1c7-4.4,14.1-8.9,21.3-13.4c1.8-1.1,3.6-2.3,5.4-3.4l2.7-1.7
				l1.4-0.9l0.8-0.5l0.6-0.4c3.3-2,6.3-4.4,8.9-7.2c5.2-5.6,8.8-12.8,10.2-20.5c1.4-7.7,0.6-15.8-2.4-23.1
				c-2.9-7.3-8.1-13.7-14.8-18.3c-0.4-0.3-0.8-0.5-1.2-0.8c-0.4-0.2-0.9-0.6-1.4-0.8l-2.9-1.7c-2-1.1-3.9-2.3-5.9-3.4
				c-3.9-2.3-7.9-4.5-11.9-6.8c-63.5-36.5-130.5-74.8-199.7-114.8c-69.2-39.9-140.7-81.1-213.4-123c-18.2-10.5-36.4-21-54.7-31.5
				c-9.1-5.3-18.3-10.6-27.5-15.8l-3.4-2l-1.7-1l-0.8-0.5l-0.8-0.4c-2-1.1-4.2-2.1-6.3-2.8c-4.3-1.5-8.9-2.2-13.5-2.2
				c-9.2,0.1-18.4,3.6-25.4,9.6c-7.1,5.9-12,14.3-13.6,23.4c-0.2,1.1-0.4,2.3-0.5,3.4c0,0.6-0.1,1.2-0.1,1.7l0,0.8l0,1l0,7.9l0,16
				c0,10.6,0,21.3,0,32c-0.1,85.2-0.1,170.4-0.2,254.3c0,41.9-0.1,83.6-0.1,124.7c0,20.6,0,41-0.1,61.3c0,10.1,0,20.2,0,30.3
				c0,8.5,3.9,16.6,10.4,21.9c3.2,2.7,7,4.6,11,5.7c4,1.1,8.2,1.3,12.2,0.6c2-0.4,4-0.9,5.9-1.7c0.9-0.4,1.6-0.7,2.8-1.3l0.8-0.4
				c0.3-0.2,0.2-0.1,0.6-0.4l1.6-0.9c4.3-2.5,8.5-4.9,12.8-7.4c17-9.8,33.8-19.5,50.5-29.1c33.3-19.1,66-37.9,97.7-56.1
				c63.5-36.5,123.6-70.9,179-102.7c13.9-8,27.4-15.7,40.7-23.4c1.7-1,3.3-1.9,5-2.8l1.2-0.7l0.6-0.4l0.5-0.3
				c0.7-0.4,1.4-0.9,2.1-1.4c2.7-1.9,5-4.2,6.9-6.8c3.8-5.2,5.7-11.6,5.6-18c-0.1-6.3-2.2-12.5-5.8-17.5c-0.9-1.2-1.9-2.4-3-3.5
				c-0.5-0.5-1.1-1.1-1.7-1.5l-0.9-0.7l-0.9-0.6c-0.3-0.2-0.5-0.4-0.9-0.6l-1.1-0.7l-0.6-0.3c-0.2-0.1-0.1-0.1-0.4-0.3l-1.1-0.7
				c-1.5-0.9-3-1.7-4.5-2.6c-11.9-6.9-23.5-13.7-34.7-20.2c-44.9-26.2-84-49-116.2-67.7c-64.4-37.6-101.2-59.1-101.2-59.1
				L277.7,245.3z"/>
		</g>
	</g>
</g>
<g id="XMLID_1_">
</g>
<g id="XMLID_2_">
</g>
<g id="XMLID_3_">
</g>
<g id="XMLID_4_">
</g>
<g id="XMLID_5_">
</g>
<g id="XMLID_6_">
</g>
<g id="XMLID_9_">
</g>
<g id="XMLID_10_">
</g>
<g id="XMLID_11_">
</g>
<g id="XMLID_12_">
</g>
<g id="XMLID_14_">
</g>
<g id="XMLID_15_">
</g>
<g id="XMLID_16_">
</g>
<g id="XMLID_17_">
</g>
<g id="XMLID_18_">
</g>
</svg>
