<?xml version="1.0" encoding="utf-8"?>
<!-- Generator: Adobe Illustrator 19.0.0, SVG Export Plug-In . SVG Version: 6.00 Build 0)  -->
<svg version="1.1" id="Warstwa_1" xmlns="http://www.w3.org/2000/svg" xmlns:xlink="http://www.w3.org/1999/xlink" x="0px" y="0px"
	 viewBox="0 0 800 800" style="enable-background:new 0 0 800 800;" xml:space="preserve">
<style type="text/css">
	.st0{fill:#F2EDED;}
</style>
<g id="XMLID_5_">
	<g id="XMLID_31_">
		<path id="XMLID_33_" class="st0" d="M310.4,245.9c0-8.5,7.8-15.5,17.5-15.5c9.7,0,17.5,6.9,17.5,15.5v32.4h-35.1V245.9z"/>
		<path id="XMLID_32_" class="st0" d="M271.4,689V135.8c0-82,42.6-129,116.9-129c71.8,0,101.3,53.4,106.9,81.6l0.1,189.9h-34.9V92.7
			c-2.1-8.3-16.3-54.9-72.1-54.9c-54.3,0-81.8,33-81.8,98v553.8l-0.1,1.7c0,0.3-3.3,31.2,18.9,52.8c15.6,15.3,40.8,23,74.8,23
			c97.2,0,115-57.9,115-172V270c0-8.5,7.8-15.5,17.5-15.5c9.7,0,17.5,6.9,17.5,15.5v325.1c0,75.9,0,202.9-150,202.9
			c-44.6,0-78.6-11.2-101.1-33.5C268.7,734.7,270.8,695.9,271.4,689z"/>
	</g>
</g>
<g id="XMLID_2_">
</g>
<g id="XMLID_4_">
</g>
<g id="XMLID_6_">
</g>
<g id="XMLID_7_">
</g>
<g id="XMLID_8_">
</g>
<g id="XMLID_9_">
</g>
<g id="XMLID_10_">
</g>
<g id="XMLID_11_">
</g>
<g id="XMLID_12_">
</g>
<g id="XMLID_13_">
</g>
<g id="XMLID_14_">
</g>
<g id="XMLID_15_">
</g>
<g id="XMLID_16_">
</g>
<g id="XMLID_17_">
</g>
<g id="XMLID_18_">
</g>
</svg>
